<svg width="500" height="282" viewBox="0 0 500 282" fill="none" xmlns="http://www.w3.org/2000/svg">
<path d="M290.5 67L138.5 146.5" stroke="#E7EDF1" stroke-width="2"/>
<g clip-path="url(#clip0_316_12081)">
<path d="M149.344 235.594L131.148 231.48C130.008 231.223 128.99 230.583 128.264 229.667C127.537 228.752 127.145 227.616 127.153 226.447L127.248 216.569C124.803 214.766 122.565 212.697 120.577 210.4L110.733 211.248C109.568 211.349 108.403 211.048 107.432 210.396C106.462 209.743 105.743 208.778 105.397 207.661L99.8404 189.848C99.4999 188.732 99.5485 187.532 99.9781 186.447C100.408 185.361 101.193 184.454 102.206 183.873L110.798 178.985C111.14 175.968 111.812 172.998 112.801 170.127L107.144 162.033C106.479 161.072 106.16 159.914 106.239 158.748C106.318 157.582 106.791 156.478 107.581 155.616L120.242 141.912C121.036 141.053 122.099 140.491 123.256 140.32C124.414 140.148 125.594 140.378 126.603 140.97L135.125 145.971C136.548 145.347 138.007 144.794 139.489 144.331C140.914 143.907 142.359 143.556 143.819 143.281L147.986 134.335C148.48 133.276 149.322 132.418 150.371 131.903C151.42 131.388 152.614 131.247 153.754 131.504L171.95 135.618C173.089 135.877 174.106 136.518 174.832 137.434C175.558 138.35 175.948 139.487 175.939 140.655L175.87 150.534C178.31 152.343 180.547 154.411 182.541 156.703L192.39 155.856C193.554 155.756 194.718 156.058 195.687 156.71C196.657 157.362 197.375 158.326 197.722 159.442L203.256 177.26C203.955 179.557 202.973 182.041 200.89 183.236L192.298 188.123C191.956 191.14 191.284 194.111 190.295 196.981L195.949 205.09C197.314 207.07 197.133 209.73 195.513 211.502L182.851 225.206C182.058 226.065 180.994 226.627 179.837 226.799C178.68 226.97 177.499 226.741 176.491 226.148L167.969 221.147C165.188 222.365 162.281 223.269 159.3 223.843L155.111 232.768C154.616 233.826 153.774 234.683 152.725 235.197C151.676 235.711 150.483 235.851 149.344 235.594V235.594ZM156.05 163.549C150.747 162.35 145.185 163.307 140.587 166.209C135.99 169.111 132.733 173.72 131.534 179.023C130.335 184.327 131.291 189.889 134.193 194.486C137.095 199.084 141.705 202.341 147.008 203.54C152.311 204.739 157.873 203.782 162.471 200.88C167.069 197.978 170.325 193.369 171.524 188.066C172.723 182.763 171.767 177.201 168.865 172.603C165.963 168.005 161.353 164.749 156.05 163.549V163.549Z" fill="#E7EDF1"/>
</g>
<path d="M163 221.5L343.5 181" stroke="#E7EDF1" stroke-width="2"/>
<path d="M332.834 202.498H304.059C302.257 202.498 300.508 201.882 299.103 200.752C297.698 199.622 296.722 198.046 296.336 196.284L293.119 181.391C288.827 179.511 284.757 177.159 280.984 174.379L266.463 179.004C264.744 179.552 262.889 179.496 261.207 178.844C259.524 178.193 258.115 176.986 257.214 175.423L242.795 150.514C241.903 148.95 241.568 147.129 241.845 145.35C242.122 143.571 242.995 141.938 244.321 140.719L255.585 130.443C255.073 125.788 255.073 121.09 255.585 116.435L244.321 106.182C242.993 104.963 242.119 103.329 241.842 101.548C241.565 99.7669 241.901 97.9446 242.795 96.3797L257.182 71.4548C258.084 69.8921 259.493 68.6848 261.175 68.0334C262.858 67.382 264.712 67.3257 266.431 67.8738L280.953 72.4983C282.882 71.0754 284.89 69.7473 286.961 68.5457C288.961 67.4232 291.016 66.4035 293.119 65.4944L296.344 50.617C296.728 48.8557 297.702 47.2785 299.106 46.147C300.509 45.0155 302.257 44.3975 304.059 44.3956L332.834 44.3956C334.637 44.3975 336.385 45.0155 337.788 46.147C339.191 47.2785 340.166 48.8557 340.549 50.617L343.806 65.5023C348.093 67.3937 352.162 69.7448 355.941 72.5141L370.47 67.8896C372.188 67.3435 374.041 67.4009 375.722 68.0522C377.402 68.7035 378.81 69.9096 379.711 71.4706L394.099 96.3955C395.933 99.6128 395.3 103.684 392.573 106.19L381.308 116.467C381.821 121.122 381.821 125.819 381.308 130.474L392.573 140.751C395.3 143.265 395.933 147.328 394.099 150.545L379.711 175.47C378.81 177.033 377.401 178.24 375.718 178.892C374.036 179.543 372.181 179.599 370.462 179.051L355.941 174.427C352.171 177.204 348.104 179.553 343.814 181.431L340.549 196.284C340.164 198.044 339.189 199.62 337.786 200.75C336.383 201.88 334.636 202.496 332.834 202.498V202.498ZM318.415 91.8263C310.029 91.8263 301.986 95.1577 296.056 101.088C290.126 107.018 286.795 115.06 286.795 123.447C286.795 131.833 290.126 139.876 296.056 145.806C301.986 151.736 310.029 155.067 318.415 155.067C326.801 155.067 334.844 151.736 340.774 145.806C346.704 139.876 350.036 131.833 350.036 123.447C350.036 115.06 346.704 107.018 340.774 101.088C334.844 95.1577 326.801 91.8263 318.415 91.8263V91.8263Z" fill="#E7EDF1"/>
<defs>
<clipPath id="clip0_316_12081">
<rect width="123" height="123" fill="white" transform="translate(105.127 110) rotate(12.741)"/>
</clipPath>
</defs>
</svg>
