<svg width="500" height="282" viewBox="0 0 500 282" fill="none" xmlns="http://www.w3.org/2000/svg">
<rect x="120" y="108" width="260" height="66" rx="6" stroke="#E7EDF1" stroke-width="8"/>
<path d="M176.503 132.815L165.599 121.934C165.52 121.855 165.427 121.793 165.324 121.75C165.222 121.708 165.112 121.686 165 121.686C164.889 121.686 164.779 121.708 164.677 121.75C164.574 121.793 164.481 121.855 164.402 121.934L153.498 132.815C153.18 133.132 153 133.563 153 134.012C153 134.945 153.76 135.704 154.694 135.704H155.843V143.468C155.843 143.936 156.222 144.314 156.69 144.314H163.306V138.393H166.271V144.314H173.311C173.779 144.314 174.158 143.936 174.158 143.468V135.704H175.307C175.757 135.704 176.188 135.527 176.506 135.207C177.165 134.546 177.165 133.476 176.503 132.815Z" fill="#E7EDF1"/>
<rect x="147" y="153.314" width="36" height="7" rx="3.5" fill="#E7EDF1"/>
<path d="M214.5 142C214.5 142 213 142 213 140.5C213 139 214.5 134.5 222 134.5C229.5 134.5 231 139 231 140.5C231 142 229.5 142 229.5 142H214.5ZM222 133C223.193 133 224.338 132.526 225.182 131.682C226.026 130.838 226.5 129.693 226.5 128.5C226.5 127.307 226.026 126.162 225.182 125.318C224.338 124.474 223.193 124 222 124C220.807 124 219.662 124.474 218.818 125.318C217.974 126.162 217.5 127.307 217.5 128.5C217.5 129.693 217.974 130.838 218.818 131.682C219.662 132.526 220.807 133 222 133V133Z" fill="#E7EDF1"/>
<rect x="204" y="154" width="36" height="7" rx="3.5" fill="#E7EDF1"/>
<path d="M280.82 143H277.18C276.952 143 276.731 142.922 276.553 142.779C276.375 142.636 276.252 142.437 276.203 142.214L275.796 140.33C275.253 140.092 274.738 139.795 274.261 139.443L272.424 140.028C272.206 140.097 271.972 140.09 271.759 140.008C271.546 139.925 271.368 139.773 271.254 139.575L269.43 136.424C269.317 136.226 269.275 135.996 269.31 135.771C269.345 135.546 269.455 135.339 269.623 135.185L271.048 133.885C270.983 133.296 270.983 132.702 271.048 132.113L269.623 130.816C269.455 130.662 269.344 130.455 269.309 130.23C269.274 130.004 269.317 129.774 269.43 129.576L271.25 126.423C271.364 126.225 271.542 126.073 271.755 125.99C271.968 125.908 272.202 125.901 272.42 125.97L274.257 126.555C274.501 126.375 274.755 126.207 275.017 126.055C275.27 125.913 275.53 125.784 275.796 125.669L276.204 123.787C276.252 123.564 276.376 123.365 276.553 123.222C276.731 123.078 276.952 123 277.18 123H280.82C281.048 123 281.269 123.078 281.447 123.222C281.624 123.365 281.747 123.564 281.796 123.787L282.208 125.67C282.75 125.909 283.265 126.207 283.743 126.557L285.581 125.972C285.798 125.903 286.033 125.91 286.245 125.993C286.458 126.075 286.636 126.228 286.75 126.425L288.57 129.578C288.802 129.985 288.722 130.5 288.377 130.817L286.952 132.117C287.017 132.706 287.017 133.3 286.952 133.889L288.377 135.189C288.722 135.507 288.802 136.021 288.57 136.428L286.75 139.581C286.636 139.779 286.458 139.931 286.245 140.014C286.032 140.096 285.797 140.103 285.58 140.034L283.743 139.449C283.266 139.8 282.752 140.098 282.209 140.335L281.796 142.214C281.747 142.437 281.624 142.636 281.446 142.779C281.269 142.922 281.048 143 280.82 143V143ZM278.996 129C277.935 129 276.918 129.421 276.167 130.172C275.417 130.922 274.996 131.939 274.996 133C274.996 134.061 275.417 135.078 276.167 135.828C276.918 136.579 277.935 137 278.996 137C280.057 137 281.074 136.579 281.824 135.828C282.574 135.078 282.996 134.061 282.996 133C282.996 131.939 282.574 130.922 281.824 130.172C281.074 129.421 280.057 129 278.996 129V129Z" fill="#E7EDF1"/>
<rect x="261" y="154" width="36" height="7" rx="3.5" fill="#E7EDF1"/>
<path d="M336 122.5C330.202 122.5 325.5 127.202 325.5 133C325.5 138.798 330.202 143.5 336 143.5C341.798 143.5 346.5 138.798 346.5 133C346.5 127.202 341.798 122.5 336 122.5ZM336.75 138.062C336.75 138.166 336.666 138.25 336.562 138.25H335.438C335.334 138.25 335.25 138.166 335.25 138.062V131.688C335.25 131.584 335.334 131.5 335.438 131.5H336.562C336.666 131.5 336.75 131.584 336.75 131.688V138.062ZM336 130C335.706 129.994 335.425 129.873 335.219 129.662C335.013 129.452 334.898 129.169 334.898 128.875C334.898 128.581 335.013 128.298 335.219 128.088C335.425 127.877 335.706 127.756 336 127.75C336.294 127.756 336.575 127.877 336.781 128.088C336.987 128.298 337.102 128.581 337.102 128.875C337.102 129.169 336.987 129.452 336.781 129.662C336.575 129.873 336.294 129.994 336 130Z" fill="#E7EDF1"/>
<rect x="318" y="154" width="36" height="7" rx="3.5" fill="#E7EDF1"/>
</svg>
