<svg width="500" height="282" viewBox="0 0 500 282" fill="none" xmlns="http://www.w3.org/2000/svg">
<rect x="162" y="54" width="176" height="45" rx="2" fill="#E7EDF1"/>
<path d="M314 86C319.523 86 324 81.5228 324 76C324 70.4772 319.523 66 314 66C308.477 66 304 70.4772 304 76C304 81.5228 308.477 86 314 86Z" fill="white" stroke="#E7EDF1" stroke-width="2"/>
<path d="M310 74.5L314 78.5L318 74.5" fill="white"/>
<path d="M310 74.5L314 78.5L318 74.5" stroke="#E7EDF1" stroke-width="2" stroke-linecap="round" stroke-linejoin="round"/>
<rect x="162" y="110" width="176" height="117" rx="2" fill="#E7EDF1" fill-opacity="0.4"/>
<rect x="183" y="120" width="134" height="26" rx="2" fill="#E7EDF1"/>
<rect x="183" y="155" width="134" height="26" rx="2" fill="#E7EDF1"/>
<rect x="183" y="190" width="134" height="26" rx="2" fill="#E7EDF1"/>
</svg>
