<svg width="500" height="282" viewBox="0 0 500 282" fill="none" xmlns="http://www.w3.org/2000/svg">
<rect width="131" height="281" fill="#E7EDF1" fill-opacity="0.3"/>
<path d="M37.5033 92.1289L26.5988 81.2478C26.5203 81.1693 26.427 81.1069 26.3244 81.0644C26.2217 81.0219 26.1116 81 26.0005 81C25.8894 81 25.7793 81.0219 25.6766 81.0644C25.574 81.1069 25.4807 81.1693 25.4022 81.2478L14.4977 92.1289C14.18 92.4461 14 92.877 14 93.3264C14 94.2596 14.7598 95.0183 15.6943 95.0183H16.8433V102.783C16.8433 103.251 17.2218 103.629 17.6904 103.629H24.3062V97.7069H27.2712V103.629H34.3106C34.7792 103.629 35.1577 103.251 35.1577 102.783V95.0183H36.3067C36.7567 95.0183 37.1883 94.8412 37.5059 94.5214C38.1651 93.8605 38.1651 92.7898 37.5033 92.1289Z" fill="#E7EDF1"/>
<rect x="50" y="86.3143" width="68" height="12" rx="6" fill="#E7EDF1"/>
<path d="M18.5 132.629C18.5 132.629 17 132.629 17 131.129C17 129.629 18.5 125.129 26 125.129C33.5 125.129 35 129.629 35 131.129C35 132.629 33.5 132.629 33.5 132.629H18.5ZM26 123.629C27.1935 123.629 28.3381 123.154 29.182 122.311C30.0259 121.467 30.5 120.322 30.5 119.129C30.5 117.935 30.0259 116.791 29.182 115.947C28.3381 115.103 27.1935 114.629 26 114.629C24.8065 114.629 23.6619 115.103 22.818 115.947C21.9741 116.791 21.5 117.935 21.5 119.129C21.5 120.322 21.9741 121.467 22.818 122.311C23.6619 123.154 24.8065 123.629 26 123.629V123.629Z" fill="#E7EDF1"/>
<rect x="50" y="117.629" width="68" height="12" rx="6" fill="#E7EDF1"/>
<path d="M27.8199 165.629H24.1799C23.9518 165.629 23.7306 165.551 23.5529 165.408C23.3752 165.265 23.2517 165.065 23.2029 164.843L22.7959 162.959C22.2529 162.721 21.7381 162.423 21.2609 162.072L19.4239 162.657C19.2064 162.726 18.9718 162.719 18.759 162.636C18.5462 162.554 18.3679 162.401 18.2539 162.204L16.4299 159.053C16.317 158.855 16.2747 158.624 16.3097 158.399C16.3448 158.174 16.4552 157.968 16.6229 157.814L18.0479 156.514C17.9831 155.925 17.9831 155.33 18.0479 154.742L16.6229 153.445C16.455 153.29 16.3444 153.084 16.3093 152.858C16.2743 152.633 16.3168 152.403 16.4299 152.205L18.2499 149.052C18.3639 148.854 18.5422 148.701 18.755 148.619C18.9678 148.536 19.2024 148.529 19.4199 148.599L21.2569 149.184C21.5009 149.004 21.7549 148.836 22.0169 148.684C22.2699 148.542 22.5299 148.413 22.7959 148.298L23.2039 146.416C23.2525 146.193 23.3757 145.993 23.5532 145.85C23.7307 145.707 23.9518 145.629 24.1799 145.629H27.8199C28.0479 145.629 28.269 145.707 28.4465 145.85C28.6241 145.993 28.7473 146.193 28.7959 146.416L29.2079 148.299C29.7501 148.538 30.2648 148.835 30.7429 149.186L32.5809 148.601C32.7982 148.531 33.0326 148.539 33.2452 148.621C33.4578 148.704 33.6359 148.856 33.7499 149.054L35.5699 152.207C35.8019 152.614 35.7219 153.129 35.3769 153.446L33.9519 154.746C34.0167 155.334 34.0167 155.929 33.9519 156.518L35.3769 157.818C35.7219 158.136 35.8019 158.65 35.5699 159.057L33.7499 162.21C33.6358 162.407 33.4576 162.56 33.2448 162.642C33.0319 162.725 32.7973 162.732 32.5799 162.663L30.7429 162.078C30.266 162.429 29.7515 162.726 29.2089 162.964L28.7959 164.843C28.7471 165.065 28.6238 165.264 28.4463 165.407C28.2688 165.55 28.0478 165.628 27.8199 165.629V165.629ZM25.9959 151.629C24.935 151.629 23.9176 152.05 23.1675 152.8C22.4173 153.55 21.9959 154.568 21.9959 155.629C21.9959 156.689 22.4173 157.707 23.1675 158.457C23.9176 159.207 24.935 159.629 25.9959 159.629C27.0568 159.629 28.0742 159.207 28.8243 158.457C29.5745 157.707 29.9959 156.689 29.9959 155.629C29.9959 154.568 29.5745 153.55 28.8243 152.8C28.0742 152.05 27.0568 151.629 25.9959 151.629V151.629Z" fill="#E7EDF1"/>
<rect x="50" y="149.629" width="68" height="12" rx="6" fill="#E7EDF1"/>
<path d="M26 177.129C20.2016 177.129 15.5 181.83 15.5 187.629C15.5 193.427 20.2016 198.129 26 198.129C31.7984 198.129 36.5 193.427 36.5 187.629C36.5 181.83 31.7984 177.129 26 177.129ZM26.75 192.691C26.75 192.794 26.6656 192.879 26.5625 192.879H25.4375C25.3344 192.879 25.25 192.794 25.25 192.691V186.316C25.25 186.213 25.3344 186.129 25.4375 186.129H26.5625C26.6656 186.129 26.75 186.213 26.75 186.316V192.691ZM26 184.629C25.7056 184.623 25.4253 184.501 25.2192 184.291C25.0132 184.081 24.8977 183.798 24.8977 183.504C24.8977 183.209 25.0132 182.926 25.2192 182.716C25.4253 182.506 25.7056 182.385 26 182.379C26.2944 182.385 26.5747 182.506 26.7808 182.716C26.9868 182.926 27.1023 183.209 27.1023 183.504C27.1023 183.798 26.9868 184.081 26.7808 184.291C26.5747 184.501 26.2944 184.623 26 184.629Z" fill="#E7EDF1"/>
<rect x="50" y="181.629" width="68" height="12" rx="6" fill="#E7EDF1"/>
</svg>
