<svg width="1010" height="1040" viewBox="0 0 1010 1040" fill="none" xmlns="http://www.w3.org/2000/svg">
<path d="M503.659 951.631C760.142 951.631 968.062 743.71 968.062 487.227C968.062 230.744 760.142 22.8232 503.659 22.8232C247.175 22.8232 39.2549 230.744 39.2549 487.227C39.2549 743.71 247.175 951.631 503.659 951.631Z" fill="#EC8C92"/>
<path d="M99.7077 388.465L97.2842 388.047C97.4072 387.334 110.177 316.142 159.545 261.545L161.366 263.193C112.477 317.261 99.8307 387.764 99.7077 388.465Z" fill="white"/>
<path d="M167.001 216.422L164.971 215.044C165.364 214.466 204.879 157.15 268.271 129.188L269.268 131.439C206.539 159.106 167.394 215.856 167.001 216.422Z" fill="white"/>
<path d="M940.949 478.8H938.489C938.489 390.508 898.421 310.483 898.015 309.683L900.204 308.576C900.61 309.376 940.949 389.905 940.949 478.8Z" fill="white"/>
<path d="M893.044 432.766C891.15 397.594 879.697 367.995 879.586 367.7L881.874 366.802C881.985 367.097 893.573 397.053 895.505 432.63L893.044 432.766Z" fill="white"/>
<path d="M22.5245 371.735L20.1133 371.219C20.2609 370.505 35.7985 299.682 90.2475 228.108L92.2035 229.597C38.0867 300.74 22.6721 371.034 22.5245 371.735Z" fill="black"/>
<path d="M99.4369 173.807L97.5547 172.232C97.7023 172.06 112.133 154.862 130.537 137.491L132.222 139.275C113.916 156.547 99.5723 173.635 99.4369 173.807Z" fill="black"/>
<path d="M160.283 139.189L158.413 137.589C158.622 137.343 179.708 112.985 219.948 85.5271C257.063 60.1971 318.549 26.9569 400.74 12.3789L401.17 14.8024C319.41 29.3066 258.244 62.3746 221.338 87.5569C181.356 114.831 160.48 138.943 160.283 139.189Z" fill="black"/>
<path d="M966.882 328.948C946.178 244.556 880.485 171.703 879.82 170.977L881.641 169.316C882.305 170.042 948.417 243.375 969.269 328.358L966.882 328.948Z" fill="black"/>
<path d="M985.126 451.809C982.678 421.115 976.822 394.248 972.344 377.111L974.73 376.483C979.233 393.719 985.126 420.734 987.586 451.612L985.126 451.809Z" fill="black"/>
<path d="M998.473 567.818L996.074 567.264C998.19 558.111 1000.04 548.184 1001.56 537.764L1004 538.12C1002.46 548.602 1000.59 558.591 998.473 567.818Z" fill="black"/>
<path d="M1008.55 492.074L1006.09 491.938C1008.02 456.509 1006.31 422.346 1001.82 406.931L1004.18 406.242C1008.75 421.903 1010.49 456.398 1008.55 492.074Z" fill="black"/>
<path d="M969.834 604.159L967.497 603.408C971.815 589.974 975.481 571.275 978.397 547.864L980.833 548.172C977.905 571.73 974.202 590.565 969.834 604.159Z" fill="black"/>
<path d="M983.047 527.615L980.599 527.393C981.497 517.65 981.89 511.179 981.89 511.105L984.351 511.253C984.339 511.315 983.945 517.847 983.047 527.615Z" fill="black"/>
<path d="M733.929 63.9981C669.454 22.9584 561.466 8.8602 560.384 8.72488L560.691 6.28906C560.962 6.32597 588.31 9.84437 623.309 18.4189C655.639 26.3415 701.292 40.3166 735.258 61.9314L733.929 63.9981Z" fill="black"/>
<path d="M680.145 19.8215C662.848 12.1942 622.657 3.1276 622.251 3.04148L622.792 0.642578C623.198 0.728693 663.623 9.84454 681.141 17.5826L680.145 19.8215Z" fill="black"/>
<path d="M156.74 842.24C151.524 838.119 146.369 833.801 141.424 829.421L143.06 827.576C147.981 831.931 153.098 836.225 158.278 840.309L156.74 842.24Z" fill="black"/>
<path d="M115.172 803.612C44.6684 726.724 31.1607 642.824 31.0254 641.987L33.4613 641.618C33.5843 642.455 47.0059 725.641 116.98 801.951L115.172 803.612Z" fill="black"/>
<path d="M134.498 797.252C109.254 776.437 85.6585 728.938 85.4248 728.459L87.6269 727.376C87.8606 727.843 111.235 774.874 136.06 795.357L134.498 797.252Z" fill="black"/>
<path d="M379.014 955.21C343.129 948.346 307.675 936.142 273.635 918.932L274.742 916.729C308.585 933.829 343.818 945.959 379.482 952.787L379.014 955.21Z" fill="black"/>
<path d="M230.159 893.577C212.518 881.767 202.639 873.008 202.541 872.922L204.177 871.089C204.276 871.175 214.043 879.836 231.525 891.535L230.159 893.577Z" fill="black"/>
<path d="M525.938 981.057L525.815 978.597C534.919 978.154 543.826 977.465 552.277 976.555L552.548 979.003C544.047 979.925 535.091 980.614 525.938 981.057Z" fill="black"/>
<path d="M493.596 981.623C437.277 981.007 390.086 972.568 389.606 972.482L390.049 970.059C390.517 970.145 437.523 978.559 493.621 979.162L493.596 981.623Z" fill="black"/>
<path d="M224.427 820.219C146.825 765.807 118.235 679.496 117.952 678.635L120.29 677.872C120.573 678.733 148.929 764.282 225.841 818.202L224.427 820.219Z" fill="white"/>
<path d="M394.096 914.368C333.189 903.665 272.207 862.896 271.604 862.478L272.982 860.436C273.585 860.842 334.148 901.328 394.527 911.932L394.096 914.368Z" fill="white"/>
<path d="M293.896 840.42C277.682 835.339 258.109 817.194 257.285 816.431L258.958 814.635C259.155 814.819 278.949 833.162 294.622 838.083L293.896 840.42Z" fill="white"/>
<path d="M585.307 89.4027C572.944 96.9316 519.171 128.4 480.358 157.999C474.182 162.711 469.582 169.169 467.158 176.551C462.126 191.916 457.612 208.979 456.332 213.924C456.037 215.069 456.185 216.286 456.775 217.307C460.404 223.705 480.297 245.725 588.678 284.059L614.119 229.031C614.119 229.031 598.052 126.641 593.119 92.4413C592.615 89.009 588.666 87.3606 585.307 89.4027Z" fill="white"/>
<path d="M830.094 704.802L696.678 720.475C675.039 723.021 656.118 736.271 646.338 755.745L586.624 875.727C584.077 880.795 578.418 883.49 572.882 882.272L551.661 877.597C536.776 874.312 521.902 883.145 517.658 897.785L514.337 909.262C512.491 915.623 515.395 922.389 521.275 925.44L619.237 976.21C625.732 979.569 633.716 977.318 637.493 971.056L735.946 810.723L872.02 802.148L830.094 704.802Z" fill="#274D76"/>
<path d="M754.584 602.351L764.315 577.943L844.807 582.261L815.565 692.771L754.584 602.351Z" fill="#274D76"/>
<path d="M744.422 543.362C744.422 543.362 753.267 520.468 753.132 508.031C752.96 491.485 754.756 457.814 744.213 459.401C737.791 460.36 735.872 475.935 735.085 482.627C734.778 485.272 733.756 487.806 731.985 489.799C729.463 492.641 725.883 493.736 724.001 480.856C720.938 459.868 721.602 419.48 709.411 426.874C703.235 430.626 706.544 467.299 703.05 465.675C699.557 464.051 699.987 408.667 685.126 414.707C680.218 416.7 681.325 443.162 682.334 457.961C682.395 458.786 681.19 458.958 681.005 458.146C679 449.202 675.924 436.174 673.464 428.535C670.819 420.305 664.668 424.61 664.668 430.614C664.668 443.531 666.858 470.731 666.858 470.731L744.422 543.362Z" fill="#274D76"/>
<path d="M951.036 616.843L973.18 654.979L921.511 821.057C916.664 837.899 897.399 848.405 880.103 845.526L813.598 838.145C805.06 836.718 801.997 841.097 804.986 849.217L833.687 980.91C838.559 994.16 831.005 1008.73 817.362 1012.38L718.404 1038.83C708.821 1041.39 699.25 1034.7 698.376 1024.82L692.681 990.826C692.447 988.23 691.709 977.81 697.601 973.603C706.213 967.452 719.745 958.84 719.745 958.84C724.309 956.392 724.777 949.073 723.436 944.078L685.841 797.88C679.702 775.01 693.935 757.283 717.297 753.396C746.822 748.475 796.03 737.403 796.03 737.403L817.104 599.927C819.872 589.015 829.947 581.548 841.204 582.089L873.533 583.627L951.036 616.843Z" fill="#FFF3A1"/>
<path d="M938.334 580.7C945.055 552.235 927.428 523.71 898.963 516.988C870.497 510.267 841.973 527.894 835.251 556.359C828.53 584.825 846.157 613.349 874.622 620.071C903.088 626.792 931.612 609.165 938.334 580.7Z" fill="#FFF3A1"/>
<path d="M405.845 567.806L581.839 408.593C590.93 400.363 604.229 401.015 614.993 406.883C636.755 418.754 674.08 439.975 707.369 476.045C735.319 506.333 781.76 554.422 787.247 595.129C787.874 599.792 786.25 604.466 782.99 607.849C729.328 663.443 620.172 765.833 607.968 776.24C579.083 800.881 504.176 745.251 461.5 695.649C443.674 674.945 383.541 588.843 405.845 567.806Z" fill="white"/>
<path d="M979.208 626.585C962.871 610.506 934.945 611.466 917.722 626.228L856.667 681.834C853.321 684.614 848.363 684.184 845.546 680.874L802.292 630.313C795.329 622.156 791.122 612.02 790.261 601.341L788.698 582.064C788.588 580.76 788.28 579.481 787.763 578.275L779.878 557.976C778.795 555.184 775.031 554.839 773.395 557.349C771.18 560.757 769.974 565.887 769.974 570.98C769.974 580.821 772.287 591.45 768.597 591.45C763.676 591.45 757.832 581.781 755.335 572.702C752.469 562.258 751.042 553.929 745.985 549.304C743.697 547.212 739.625 548.59 738.998 552.071C737.534 560.092 739.219 575.199 739.355 583.774C739.392 586.234 737.189 586.185 736.513 583.196C734.434 573.932 728.763 545.625 728.763 545.625C727.864 541.898 722.722 541.467 721.234 545.01C716.977 555.184 718.564 577.315 719.339 585.545C719.413 586.271 718.429 586.567 718.097 585.927C716.042 582.089 712.413 574.535 709.817 564.915C709.239 562.774 706.311 562.307 705.229 564.238C701.969 570.106 703.629 584.118 704.503 589.876C704.589 590.417 703.851 590.663 703.58 590.196C702.165 587.711 701.083 585.361 699.988 582.556C698.573 578.927 695.535 581.006 695.276 583.306C694.415 591.069 693.972 602.166 697.269 616.387C698.463 621.517 702.781 636.907 722.132 660.047L825.469 774.456C843.922 797.83 867.567 791.667 880.829 781.838C914.044 757.233 975.358 696.621 975.358 696.621C998.682 676.938 993.799 640.942 979.208 626.585Z" fill="#FFF3A1"/>
<path d="M517.092 662.742C455.336 596.729 423.141 577.698 407.419 575.938C403.938 575.545 400.924 578.264 400.948 581.77C401.133 613.927 446.429 678.156 461.487 695.675C495.859 735.644 551.181 779.526 586.488 782.171C589.195 782.367 591.385 780.018 591.077 777.336C588.937 758.464 574.026 723.6 517.092 662.742Z" fill="#F2BDBA"/>
<path d="M457.305 218.206C462.189 229.967 518.311 266.147 588.654 284.071L590.745 279.557C563.447 255.629 516.256 231.615 481.22 222.573C468.377 219.264 461.377 217.726 457.305 218.206Z" fill="#F2BDBA"/>
<path d="M592.012 113.108C585.565 107.732 577.901 104.165 569.253 102.504L569.72 100.093C578.787 101.84 586.808 105.58 593.586 111.214L592.012 113.108Z" fill="black"/>
<path d="M686.074 521.169L660.03 499.358C655.946 495.938 650.644 494.351 645.354 494.991C624.256 497.525 569.093 504.943 550.603 515.105C543.751 518.869 528.915 535.305 528.915 535.305C523.539 540.877 523.514 549.698 528.865 555.308L562.721 592.718C565.07 595.314 569.032 595.609 571.738 593.395L598.803 571.227C601.731 568.828 602.026 564.448 599.442 561.668L593.993 555.837C591.815 553.795 592.824 550.141 595.752 549.513L683.761 530.617C688.141 529.646 689.531 524.06 686.074 521.169ZM645.514 559.318C641.282 556.317 636.017 556.058 632.031 559.355L550.271 626.881C545.35 630.941 545.043 640.82 549.213 645.654C552.448 649.406 558.969 656.886 562.13 660.724C567.974 667.823 577.569 668.044 582.281 663.751L604.351 643.637C606.356 641.816 609.456 641.939 611.302 643.92L615.976 648.939C619.286 652.408 624.748 652.58 628.266 649.333L652.637 626.82C657.25 622.551 657.287 615.268 652.698 610.962L650.447 608.846C648.343 606.878 648.368 603.52 650.496 601.588L661.716 591.365C665.898 587.551 667.387 579.002 662.109 574.019C662.122 574.019 650.988 563.218 645.514 559.318Z" fill="#93B4F6"/>
<path d="M467.281 224.787C482.794 237.003 523.342 259.22 573.423 275.471L575.072 272.015C554.38 254.435 507.251 232.599 468.29 222.732C467.072 222.425 466.285 224.012 467.281 224.787Z" fill="black"/>
<path d="M411.48 588.72C418.516 579.813 480.691 637.818 501.765 659.31C537.834 696.08 590.217 767.248 577.595 770.57C569.734 772.636 521.103 745.399 469.767 687.371C430.708 643.206 407.137 594.219 411.48 588.72Z" fill="black"/>
<path d="M826.884 75.4768L825.063 64.4295C823.55 55.2398 814.459 50.7373 805.675 53.862C794.16 57.9463 779.226 62.7933 771.131 69.092C767.92 71.5893 766.173 75.526 766.505 79.5734C769.47 115.532 772.866 143.556 774.477 155.932C775.043 160.324 773.591 164.741 770.516 167.927L734.594 205.288L771.02 223.914L839.211 160.373L826.884 75.4768Z" fill="#274D76"/>
<path d="M588.666 284.071L614.722 227.715C619.237 217.959 628.758 211.501 639.486 210.898L693.48 207.909C706.766 207.17 719.696 203.332 731.235 196.701C740.683 191.276 752.308 191.325 761.707 196.849C767.883 200.478 775.682 199.802 781.144 195.164L800.643 178.605C802.882 176.698 804.088 173.856 803.903 170.929C802.87 155.256 799.585 103.931 799.167 78.9089C799.105 75.4274 801.061 72.2166 804.186 70.6911C817.165 64.3556 837.488 61.2677 853.062 63.925C856.913 64.577 859.927 67.7386 860.173 71.6384C861.219 88.7137 849.556 107.007 849.556 107.007L859.829 184.227C862.092 201.253 854.822 218.144 840.908 228.207L776.039 275.103C771.118 278.658 766.001 281.955 760.711 284.944C748.15 292.067 734.716 297.529 720.753 301.183L671.041 314.186L588.666 284.071Z" fill="#FFF3A1"/>
<path d="M611.019 233.436L641.22 228.859L664.693 253.796L619.2 297.087L595.137 269.899L611.019 233.436Z" fill="#274D76"/>
<path d="M684.904 219.321C690.814 196.708 677.275 173.585 654.662 167.674C632.05 161.764 608.927 175.303 603.016 197.916C597.105 220.528 610.645 243.651 633.257 249.562C655.87 255.473 678.993 241.933 684.904 219.321Z" fill="#FFF3A1"/>
<path d="M535.607 193.096L543.616 180.733C544.969 178.641 544.145 175.837 541.869 174.816L538.523 173.315C536.505 172.404 536.247 169.649 538.067 168.382L573.83 143.593C575.638 142.338 575.232 139.558 573.141 138.857L556.767 133.456C554.823 132.816 552.707 133.099 550.997 134.231L515.788 157.543C513.623 158.97 511.876 160.939 510.695 163.239L505.75 172.884C503.253 177.756 505.393 183.722 510.412 185.887L530.575 194.61C532.408 195.409 534.537 194.757 535.607 193.096ZM577.889 187.634L576.069 186.502C574.445 185.494 573.83 183.439 574.617 181.705L577.028 176.415C578.443 173.315 577.237 169.649 574.26 167.988L566.178 163.485C563.004 161.726 559.006 162.87 557.271 166.056L532.851 210.565C531.228 213.53 532.126 217.245 534.93 219.14L543.579 224.959C546.765 227.099 551.108 226.041 552.965 222.683L559.965 209.926C561.011 208.031 563.422 207.391 565.267 208.511L566.227 209.101C568.331 210.393 571.086 209.606 572.193 207.404L579.415 193.133C580.424 191.177 579.747 188.791 577.889 187.634Z" fill="#93B4F6"/>
<path d="M716.3 229.831C704.465 219.264 686.418 219.891 675.334 231.234L642.389 264.966C639.818 267.599 636.029 268.645 632.473 267.71L583.499 254.854C580.116 253.968 577.052 252.147 574.654 249.601L560.592 234.691C559.424 233.448 557.32 233.67 556.569 235.195C555.794 236.758 555.315 239.316 556.114 243.462C557.886 252.689 552.534 252.664 547.097 248.309C544.292 246.07 539.949 242.576 536.406 239.71C533.712 237.533 529.739 239.476 529.726 242.933C529.702 247.141 530.305 251.963 532.728 254.657C527.783 269.493 536.087 287.11 549.237 294.221C564.418 302.426 646.239 327.707 646.239 327.707C654.187 330.057 662.786 327.854 668.629 321.986L717.555 272.852C729.561 260.82 728.983 241.162 716.3 229.831Z" fill="#FFF3A1"/>
<path d="M618.375 180.573C613.135 184.375 609.05 189.849 606.627 196.369C601.165 211.07 606.319 226.866 617.834 236.302C624.034 241.383 633.495 242.588 642.893 236.782C649.007 233.005 653.633 226.928 656.315 219.719C661.014 207.084 657.84 193.983 649.45 184.596C642.561 176.907 627.11 174.226 618.375 180.573Z" fill="black"/>
<path d="M312.017 657.095C307.318 639.183 302.089 616.105 299.334 608.268C299.223 607.961 298.842 607.112 298.559 606.927C296.086 605.279 281.569 598.328 264.765 601.133C259.561 602.006 241.698 600.346 234.551 605.771C232.336 607.444 231.5 610.273 231.303 613.041C230.294 627.964 227.809 674.072 228.228 689.634C228.301 692.427 230.221 694.936 232.964 695.49C263.239 701.653 298.448 698.811 314.133 686.964C315.868 685.648 316.84 683.569 316.643 681.392C316.249 677.221 315.166 669.09 312.017 657.095Z" fill="white"/>
<path d="M139.025 537.605L89.0047 521.969C86.4089 521.157 84.785 518.573 85.1664 515.879L92.8922 461.836C93.4334 458.022 90.7885 454.492 86.9749 453.938L55.7275 449.165C54.2636 448.956 51.1143 450.051 51.1143 454.258C51.1143 456.312 51.6802 457.456 52.7258 458.711L58.3725 465.514C59.4305 466.781 59.8857 468.455 59.615 470.078L52.935 511.413L75.8045 560.117L131.373 566.059L139.025 537.605Z" fill="#274D76"/>
<path d="M40.2022 467.876L83.6778 536.263C84.8465 538.108 86.7164 539.412 88.8446 539.892L98.5879 542.057C101.823 542.771 105.206 542.205 108.024 540.483L111.788 538.182C119.255 533.606 128.347 532.536 136.675 535.254L196.316 554.704L178.884 609.067L120.08 594.723C114.974 593.48 109.955 591.955 105.022 590.146C97.6899 587.464 86.9625 583.368 80.43 580.157C63.5885 571.878 58.0648 565.431 55.3215 560.289C46.5993 543.94 25.0461 506.886 22.3273 502.506C18.7966 496.823 11.034 496.331 6.91279 495.26C4.36625 494.596 2.49635 493.476 1.46297 491.053L0.933991 489.823C0.306585 488.359 0.798684 486.661 2.1027 485.751L30.6681 465.797C33.842 463.582 38.2339 464.53 40.2022 467.876Z" fill="#FFF3A1"/>
<path d="M222.913 591.918L275.541 591.881C279.835 591.857 284.263 593.136 286.527 595.732C287.88 597.282 290.292 600.628 291.571 602.24C292.457 603.371 292.137 604.835 290.857 604.528L284.473 602.24L285.604 606.152C286.379 608.268 284.448 609.227 282.812 608.403L276.452 605.401C276.612 607.173 274.742 608.428 273.155 607.603C270.227 606.078 269.107 605.094 265.06 602.338C264.051 601.661 262.858 601.317 261.64 601.378C250.789 601.92 243.138 603.273 236.519 605.979C231.611 607.985 231.488 613.09 231.401 614.689C231.254 617.383 227.612 625.454 227.612 625.454L193.351 618.404L187.286 595.596L222.913 591.918Z" fill="#274D76"/>
<path d="M202.91 597.996C217.83 597.996 229.925 585.394 229.925 569.848C229.925 554.303 217.83 541.701 202.91 541.701C187.99 541.701 175.895 554.303 175.895 569.848C175.895 585.394 187.99 597.996 202.91 597.996Z" fill="#FFF3A1"/>
<path d="M214.658 636.304C214.658 636.304 198.038 665.657 195.541 683.003C194.741 688.588 198.813 693.718 204.423 694.382C209.393 694.96 217.082 695.243 228.658 694.321C226.985 689.092 230.799 642.615 232.435 623.83C232.656 621.308 229.544 619.955 227.834 621.825L214.658 636.304Z" fill="white"/>
<path d="M271.396 622.317C274.951 629.722 288.372 657.98 291.239 669.323C291.596 670.725 290.488 672.054 289.049 671.968C275.923 671.094 263.252 673.013 257.851 673.998C256.473 674.244 255.243 673.124 255.354 671.734L259.02 626.475C259.081 625.675 259.598 624.974 260.336 624.679L268.664 621.283C269.71 620.853 270.903 621.308 271.396 622.317Z" fill="white"/>
<path d="M288.15 660.182C282.073 644.288 270.522 620.521 270.522 620.521L267.803 621.628L280.695 671.746C284.275 671.709 288.015 671.931 291.755 672.288C291.583 669.901 290.168 665.485 288.15 660.182Z" fill="#93B4F6"/>
<path d="M291.767 672.287C291.755 672.078 281.839 664.033 281.839 664.033C280.142 662.741 277.854 662.569 275.996 663.59L256.62 674.207C261.295 673.309 276.525 670.811 291.767 672.287Z" fill="#274D76"/>
<path d="M193.744 578.115C193.289 583.024 194.384 587.637 196.562 591.512C198.026 594.108 200.781 595.781 203.771 595.781C203.783 595.781 203.807 595.781 203.82 595.781C217.278 595.781 228.19 584.414 228.19 570.39C228.19 570.365 228.19 570.328 228.19 570.303C228.166 564.386 223.934 559.354 218.336 558.42C216.626 558.137 214.842 558.063 213.009 558.223C202.897 559.145 194.716 567.597 193.744 578.115Z" fill="black"/>
<path d="M280.905 625.909L275.098 626.586C274.631 626.635 274.397 626.045 274.766 625.762L279.638 622.083C281.545 620.644 280.401 617.618 278.026 617.802C272.749 618.208 265.946 618.774 261.086 619.291C260.287 619.377 259.93 618.294 260.631 617.888C262.809 616.646 263.953 616.043 266.216 614.776C269.452 612.955 266.266 610.396 262.563 610.532C255.637 610.802 248.735 614.973 243.482 614.973C233.985 614.973 207.695 613.693 207.695 613.693C205.616 613.62 203.685 612.562 202.516 610.839L181.16 579.235C175.181 571.337 163.9 569.873 156.113 575.987C148.719 581.782 147.132 592.349 152.508 600.063L183.78 640.131C186.671 643.833 191.063 646.072 195.762 646.232L263.854 645.199C271.974 645.211 277.682 637.855 278.408 634.029C280.499 632.614 281.988 631.064 283.058 629.661C284.3 628.013 282.972 625.663 280.905 625.909Z" fill="#FFF3A1"/>
<path d="M197.115 334.792C197.115 334.792 202.897 356.518 217.475 385.969C238.143 427.71 248.23 444.429 258.859 462.353C271.801 484.177 311.316 506.308 387.552 459.08C466.543 410.155 454.5 377.923 449.259 366.704C446.159 360.061 421.001 313.042 400.124 277.354C391.98 263.428 384.291 251.532 379.174 243.855C374.917 237.471 368.077 233.325 360.45 232.464C339.66 230.114 295.618 230.348 250.334 263.157C187.901 308.404 197.115 334.792 197.115 334.792Z" fill="white"/>
<path d="M452.432 390.594C454.511 380.101 449.984 369.373 441.164 363.296C418.798 347.869 374.991 347.205 319.447 382.291C258.416 420.845 257.001 453.47 266.08 471.542C283.869 489.097 322.227 499.542 387.539 459.08C434.348 430.096 449.185 406.968 452.432 390.594Z" fill="#F2BDBA"/>
<path d="M277.51 470.349C269.919 459.486 269.772 425.459 326.742 388.811C384.169 351.868 434.546 362.374 441.952 382.291C449.357 402.208 408.096 438.683 362.136 462.033C320.555 483.168 285.924 482.393 277.51 470.349Z" fill="black"/>
<path d="M228.178 686.423C223.171 686.411 217.893 686.682 212.616 687.1C200.732 688.047 199.133 691.787 200.252 692.931C201.298 694.001 202.885 694.579 204.423 694.752C209.393 695.33 219.653 695.662 230.577 694.383C228.178 691.738 228.19 690.458 228.178 686.423Z" fill="black"/>
<path d="M311.747 613.176C308.191 608.785 306.162 609.326 299.666 609.228C302.422 618.749 307.219 638.814 312.017 657.107C316.815 675.388 316.84 684.688 316.84 684.688C322.868 683.889 327.727 682.991 339.525 681.01C349.157 679.386 350.018 671.415 345.036 664.033L311.747 613.176Z" fill="white"/>
<path d="M312.127 688.379C312.816 686.632 311.684 684.885 308.793 683.458C303.048 680.604 291.804 678.365 269.894 679.595C249.694 680.727 239.446 685.722 234.292 690.126C231.536 692.488 231.721 694.308 234.157 695.785C264.518 703.154 295.925 699.045 312.127 688.379Z" fill="#F2BDBA"/>
<path d="M340.779 681.231C343.215 680.604 343.597 677.996 342.33 677.085C341.788 676.704 341.149 676.31 340.386 675.917C334.395 672.841 324.824 672.878 315.671 673.973C316.827 681.084 317.036 682.794 315.732 685.205C323.188 684.688 340.054 681.416 340.779 681.231Z" fill="black"/>
<path d="M269.87 327.596C266.29 318.591 266.18 308.553 270.399 301.971C271.383 300.433 273.192 297.924 272.282 296.349L264.359 284.859C262.686 281.955 258.319 283.776 256.313 286.47C246.435 299.794 242.744 317.152 250.125 335.679C260.964 362.928 281.09 370.9 301.831 365.831C305.19 365.007 306.826 361.205 305.091 358.216L299.039 348.19C297.71 345.889 295.163 344.622 292.506 344.831C283.55 345.557 274.693 339.701 269.87 327.596ZM328.957 295.451C313.272 270.613 288.348 266.824 272.023 273.024C269.169 274.107 267.877 277.416 269.403 280.061L278.31 292.129C279.368 293.95 281.459 294.836 283.513 294.442C292.223 292.757 302.926 296.127 309.975 306.781C315.573 315.245 315.56 328.494 306.678 337.007C304.734 338.877 304.931 342.088 306.284 344.425L311.968 354.23C314.219 358.105 319.251 358.474 322.683 355.608C338.774 342.174 339.955 312.871 328.957 295.451Z" fill="#93B4F6"/>
<path d="M680.342 293.715C679.493 293.715 678.632 293.494 677.844 293.039C671.816 289.533 660.941 282.681 655.836 276.32C654.396 274.524 654.433 271.904 655.946 270.083L671.927 250.818C673.612 248.776 676.602 248.419 678.73 249.994C683.749 253.721 692.89 260.611 697.749 264.916C699.705 266.651 700.013 269.53 698.462 271.621C692.877 279.174 687.305 287.343 684.487 291.526C683.515 292.94 681.941 293.715 680.342 293.715ZM675.753 251.47C675.027 251.47 674.301 251.778 673.809 252.38L657.829 271.646C657.066 272.568 657.029 273.872 657.755 274.77C662.799 281.057 674.35 288.155 679.087 290.911C680.231 291.575 681.695 291.243 682.433 290.148C685.275 285.941 690.86 277.747 696.47 270.145C697.245 269.087 697.097 267.623 696.1 266.749C691.315 262.505 682.236 255.665 677.241 251.962C676.799 251.63 676.27 251.47 675.753 251.47Z" fill="black"/>
<path d="M912.863 731.67C912.555 731.67 912.248 731.658 911.928 731.621C909.369 731.375 907.069 730.132 905.457 728.14L878.946 695.231C875.797 691.319 876.252 685.624 879.967 682.253L909.271 655.766C911.202 654.019 913.687 653.158 916.271 653.343C918.866 653.527 921.204 654.721 922.877 656.701L950.925 690.126C954.284 694.124 953.755 700.103 949.769 703.462L918.94 729.419C917.218 730.895 915.089 731.67 912.863 731.67ZM881.628 684.086C878.872 686.583 878.54 690.79 880.865 693.694L907.376 726.602C908.569 728.078 910.267 729.001 912.162 729.185C914.056 729.37 915.901 728.792 917.353 727.574L948.182 701.616C951.135 699.131 951.516 694.702 949.043 691.738L920.994 658.313C919.764 656.837 918.017 655.951 916.098 655.828C914.179 655.705 912.334 656.332 910.919 657.624L881.628 684.086Z" fill="black"/>
<path d="M768.043 673.961L766.124 672.423L779.939 655.09C780.751 654.068 780.468 652.998 779.927 652.334C779.386 651.67 778.389 651.177 777.22 651.768L761.609 659.801C759.567 660.847 757.254 660.343 755.827 658.559C754.4 656.775 754.449 654.401 755.925 652.654L769.815 636.255C770.676 635.234 770.393 634.139 769.852 633.462C769.298 632.786 768.301 632.269 767.12 632.897L726.88 653.38L725.761 651.19L765.989 630.707C768.006 629.637 770.344 630.129 771.771 631.912C773.21 633.708 773.173 636.083 771.697 637.842L757.808 654.241C756.947 655.249 757.217 656.344 757.758 657.021C758.3 657.698 759.296 658.214 760.477 657.611L776.076 649.578C778.082 648.545 780.382 649.025 781.809 650.759C783.236 652.494 783.248 654.856 781.846 656.615L768.043 673.961Z" fill="black"/>
<path d="M835.017 699.469L817.061 747.891L819.367 748.746L837.324 700.325L835.017 699.469Z" fill="black"/>
<path d="M863.189 709.988L860.868 710.805L881.58 769.651L883.901 768.835L863.189 709.988Z" fill="black"/>
<path d="M862.333 750.726L859.898 751.086L864.171 780.015L866.605 779.656L862.333 750.726Z" fill="black"/>
<path d="M834.65 739.573L830.226 762.751L832.642 763.212L837.067 740.034L834.65 739.573Z" fill="black"/>
<path d="M637.737 274.934L635.574 276.107L657.896 317.237L660.059 316.064L637.737 274.934Z" fill="black"/>
<path d="M637.876 296.791L635.512 297.471L642.405 321.449L644.77 320.769L637.876 296.791Z" fill="black"/>
<path d="M626.75 278.833L624.617 314.866L627.073 315.012L629.207 278.979L626.75 278.833Z" fill="black"/>
<path d="M561.725 292.805L559.351 292.166L565.674 268.521C566.068 267.032 567.408 266.11 568.946 266.27C570.472 266.43 571.591 267.623 571.677 269.148L572.379 283.308C572.403 283.702 572.674 283.825 572.846 283.862C573.018 283.899 573.313 283.911 573.498 283.554L582.626 265.544L584.816 266.651L575.7 284.661C575.06 285.916 573.719 286.556 572.342 286.261C570.964 285.965 570.004 284.834 569.93 283.431L569.229 269.271C569.205 268.829 568.885 268.73 568.7 268.718C568.516 268.693 568.184 268.73 568.073 269.148L561.725 292.805Z" fill="black"/>
<path d="M814.644 168.994L814.257 171.424L850.264 177.163L850.652 174.733L814.644 168.994Z" fill="black"/>
<path d="M817.118 180.015L816.223 182.307L850.028 195.509L850.923 193.217L817.118 180.015Z" fill="black"/>
<path d="M817.594 189.516L815.729 191.121L839.634 218.9L841.499 217.295L817.594 189.516Z" fill="black"/>
<path d="M780.96 849.094L780.825 849.081L710.481 841.036L710.764 838.588L781.034 846.621C782.732 846.596 783.654 845.428 783.962 844.345C784.269 843.25 784.06 841.749 782.559 840.863L701.612 802.653C699.09 801.152 698.142 798.335 699.2 795.727C700.258 793.119 702.916 791.754 705.647 792.418L769.851 806.701C771.697 807.143 772.915 806.061 773.407 804.991C773.886 803.945 773.935 802.358 772.508 801.251L718.724 774.666L719.819 772.464L773.886 799.209C776.42 801.066 776.593 803.97 775.646 806.024C774.698 808.078 772.373 809.825 769.31 809.1L705.105 794.817C703.174 794.349 701.956 795.518 701.489 796.662C701.021 797.794 701.083 799.479 702.768 800.488L783.716 838.698C786.029 840.076 787.013 842.524 786.336 845.009C785.635 847.494 783.531 849.094 780.96 849.094Z" fill="black"/>
<path d="M175.132 616.965C174.874 616.965 174.615 616.953 174.357 616.916C172.819 616.694 171.454 615.821 170.605 614.517L164.159 604.638C162.547 602.178 163.224 598.832 165.672 597.196L174.271 591.426C176.731 589.777 180.077 590.429 181.738 592.865L187.705 601.6C189.267 603.888 188.849 606.963 186.745 608.76L178.638 615.673C177.654 616.522 176.411 616.965 175.132 616.965ZM177.285 592.988C176.719 592.988 176.153 593.148 175.649 593.48L167.049 599.25C165.721 600.148 165.352 601.956 166.225 603.31L172.672 613.188C173.139 613.902 173.877 614.369 174.714 614.492C175.563 614.615 176.399 614.369 177.039 613.816L185.146 606.902C186.29 605.918 186.524 604.245 185.663 603.002L179.696 594.268C179.155 593.431 178.22 592.988 177.285 592.988Z" fill="black"/>
<path d="M198.453 617.9L184.984 632.017L186.764 633.715L200.233 619.599L198.453 617.9Z" fill="black"/>
<path d="M194.35 630.839L190.76 638.095L192.965 639.186L196.555 631.931L194.35 630.839Z" fill="black"/>
<path d="M204.192 617.636L199.171 641.596L201.579 642.1L206.6 618.141L204.192 617.636Z" fill="black"/>
<path d="M232.201 636.981C232.139 636.981 232.09 636.981 232.029 636.981C230.392 636.907 229.002 635.862 228.486 634.312L226.296 627.693L228.633 626.918L230.823 633.537C231.118 634.41 231.893 634.521 232.127 634.521C232.361 634.521 233.148 634.496 233.517 633.647L235.645 628.665C236.162 627.459 237.232 626.598 238.524 626.365C239.816 626.131 241.12 626.537 242.03 627.472L248.464 634.066C249.03 634.644 249.719 634.582 250.187 634.324C250.654 634.066 251.085 633.512 250.9 632.725L247.911 619.93L250.31 619.377L253.299 632.171C253.705 633.893 252.93 635.628 251.38 636.477C249.817 637.326 247.948 637.043 246.705 635.776L240.271 629.182C239.927 628.825 239.447 628.677 238.979 628.776C238.5 628.862 238.106 629.182 237.921 629.625L235.793 634.607C235.166 636.071 233.776 636.981 232.201 636.981Z" fill="black"/>
<path d="M73.6128 538.35L55.9951 544.396L56.7938 546.723L74.4114 540.677L73.6128 538.35Z" fill="black"/>
<path d="M68.7394 546.193L59.2676 554.082L60.8422 555.973L70.314 548.084L68.7394 546.193Z" fill="black"/>
<path d="M75.7595 546.67L68.3965 565.613L70.6898 566.505L78.0529 547.562L75.7595 546.67Z" fill="black"/>
<path d="M9.76698 491.472C9.49634 491.472 9.21341 491.447 8.94276 491.386L6.81445 490.918L7.34343 488.52L9.47175 488.987C9.86541 489.073 10.2713 488.987 10.5912 488.766C10.9234 488.532 11.1325 488.187 11.1818 487.781L11.4032 486.059C11.5508 484.964 12.1536 483.98 13.0639 483.353C13.9743 482.725 15.1184 482.528 16.1886 482.787L20.4206 483.833C20.8757 483.943 21.3432 483.833 21.6877 483.525C22.0445 483.217 22.2167 482.775 22.1798 482.307L21.9706 479.945C21.8599 478.69 22.3397 477.485 23.287 476.66C24.2342 475.836 25.489 475.516 26.7192 475.812L29.4872 476.464C29.9424 476.574 30.3976 476.451 30.7543 476.144C31.0988 475.836 31.2833 475.393 31.2341 474.926C31.0988 473.573 31.6647 472.281 32.7473 471.457C33.8298 470.632 35.2323 470.436 36.4994 470.928L39.6733 472.146L38.7876 474.446L35.6137 473.228C35.1462 473.044 34.6418 473.117 34.2358 473.425C33.8299 473.733 33.633 474.2 33.6822 474.704C33.8053 475.971 33.3255 477.165 32.3782 478.001C31.431 478.838 30.1639 479.158 28.9336 478.862L26.1657 478.21C25.7105 478.112 25.2553 478.223 24.8985 478.518C24.5541 478.826 24.3695 479.256 24.4187 479.724L24.6279 482.086C24.7386 483.34 24.2465 484.571 23.287 485.383C22.3274 486.194 21.0357 486.514 19.8178 486.207L15.5858 485.161C15.1922 485.063 14.7862 485.137 14.4418 485.37C14.0973 485.604 13.8882 485.948 13.8267 486.367L13.6052 488.089C13.4576 489.159 12.8794 490.131 11.9813 490.759C11.3416 491.226 10.5666 491.472 9.76698 491.472Z" fill="black"/>
<path d="M812.884 90.3006C812.847 90.3006 812.822 90.3006 812.786 90.3006C811.531 90.2637 810.448 89.5256 809.956 88.3815L807.963 83.7559C807.791 83.3622 807.446 83.313 807.299 83.313C807.299 83.313 807.299 83.313 807.287 83.313C807.139 83.313 806.782 83.3622 806.622 83.7682L804.396 89.3287L802.107 88.4184L804.334 82.8578C804.814 81.6522 805.958 80.8772 807.25 80.8526C807.262 80.8526 807.274 80.8526 807.287 80.8526C808.566 80.8526 809.71 81.603 810.214 82.7717L812.207 87.3973C812.367 87.7787 812.712 87.8279 812.859 87.8402C812.995 87.8402 813.339 87.8156 813.524 87.4342L814.963 84.5555C815.443 83.596 816.365 82.944 817.423 82.8209C818.494 82.6856 819.539 83.0916 820.228 83.9158L822.603 86.6838C822.861 86.979 823.181 86.9421 823.304 86.9175C823.427 86.8929 823.735 86.7945 823.845 86.4131L825.285 81.603C825.604 80.545 826.429 79.7331 827.511 79.4379C828.582 79.1426 829.713 79.4256 830.513 80.1883L835.163 84.5432C835.434 84.8016 835.754 84.7524 835.877 84.7032C836 84.6662 836.283 84.5432 836.369 84.1742L837.279 80.2375C837.537 79.1426 838.313 78.2815 839.383 77.9247C840.453 77.5679 841.597 77.8017 842.446 78.5275L845.78 81.3693C846.075 81.6153 846.383 81.5415 846.506 81.4923C846.629 81.4431 846.912 81.3078 846.973 80.9264L847.6 77.0266C847.785 75.8703 848.597 74.9107 849.704 74.5293C850.824 74.148 852.042 74.4063 852.903 75.2059C853.223 75.5012 853.555 75.3905 853.69 75.3413C853.825 75.2798 854.121 75.1075 854.121 74.6769V71.8721H856.581V74.6769C856.581 75.9687 855.855 77.0759 854.674 77.5926C853.493 78.1092 852.177 77.8878 851.23 77.0144C850.947 76.7437 850.627 76.8175 850.504 76.8667C850.381 76.9036 850.085 77.0513 850.024 77.4326L849.397 81.3324C849.212 82.4765 848.449 83.4114 847.355 83.8174C846.26 84.2234 845.079 84.0142 844.193 83.2515L840.859 80.4097C840.576 80.176 840.281 80.2375 840.158 80.2744C840.047 80.3113 839.764 80.4466 839.678 80.8034L838.768 84.7401C838.509 85.8595 837.697 86.733 836.59 87.0774C835.483 87.4096 834.327 87.139 833.478 86.3516L828.828 81.9967C828.557 81.7507 828.262 81.7999 828.139 81.8245C828.016 81.8614 827.733 81.9721 827.634 82.3165L826.195 87.1267C825.863 88.2462 824.94 89.0827 823.808 89.3287C822.664 89.5748 821.483 89.1688 820.733 88.2831L818.358 85.5151C818.125 85.2444 817.842 85.2567 817.719 85.269C817.608 85.2813 817.313 85.3552 817.153 85.6627L815.713 88.5414C815.184 89.624 814.102 90.3006 812.884 90.3006Z" fill="black"/>
<path d="M809.282 71.5983L808.042 73.7236L819.784 80.5722L821.024 78.4469L809.282 71.5983Z" fill="black"/>
<path d="M820.338 67.0727L819.144 69.2236L834.404 77.7006L835.599 75.5497L820.338 67.0727Z" fill="black"/>
<path d="M834.291 65.5612L833.236 67.7842L845.796 73.7423L846.851 71.5193L834.291 65.5612Z" fill="black"/>
<path d="M707.295 1024.84L705.031 1023.88L708.796 1015.02C709.706 1012.88 711.502 1011.3 713.741 1010.66C715.98 1010.02 718.342 1010.42 720.249 1011.76L724.161 1014.52C725.527 1015.48 727.212 1015.74 728.799 1015.2C730.386 1014.67 731.579 1013.45 732.096 1011.86L732.773 1009.76C733.535 1007.36 735.442 1005.5 737.841 1004.78C740.24 1004.05 742.86 1004.55 744.816 1006.12L748.79 1009.28C750.155 1010.36 751.89 1010.69 753.551 1010.18C755.212 1009.67 756.466 1008.42 756.983 1006.76L758.004 1003.47C758.755 1001.06 760.563 999.228 762.974 998.465C765.385 997.69 767.92 998.133 769.937 999.659L774.501 1003.12C775.879 1004.16 777.614 1004.46 779.262 1003.91C780.91 1003.37 782.128 1002.11 782.621 1000.45L784.331 994.627C785.081 992.08 787.049 990.137 789.608 989.411C792.155 988.697 794.861 989.337 796.829 991.121L800.495 994.455C801.861 995.697 803.743 996.128 805.515 995.574C807.286 995.033 808.603 993.63 809.045 991.834C809.697 989.152 811.666 987.073 814.323 986.298C816.968 985.523 819.748 986.188 821.753 988.095L827.462 993.52L825.764 995.304L820.056 989.878C818.69 988.587 816.808 988.131 815.012 988.66C813.216 989.189 811.875 990.592 811.432 992.425C810.792 995.082 808.849 997.137 806.241 997.936C803.632 998.736 800.864 998.121 798.847 996.275L795.181 992.942C793.852 991.724 792.019 991.293 790.285 991.785C788.55 992.277 787.209 993.594 786.705 995.316L784.995 1001.13C784.281 1003.55 782.436 1005.45 780.049 1006.24C777.65 1007.03 775.03 1006.58 773.025 1005.07L768.461 1001.61C767.095 1000.58 765.373 1000.29 763.737 1000.8C762.101 1001.32 760.87 1002.56 760.366 1004.2L759.345 1007.48C758.595 1009.89 756.7 1011.78 754.289 1012.53C751.878 1013.26 749.257 1012.77 747.277 1011.2L743.303 1008.04C741.95 1006.95 740.228 1006.62 738.567 1007.13C736.906 1007.63 735.651 1008.86 735.122 1010.51L734.446 1012.61C733.695 1014.96 731.924 1016.75 729.586 1017.53C727.249 1018.32 724.764 1017.95 722.746 1016.52L718.834 1013.77C717.542 1012.86 715.943 1012.59 714.418 1013.02C712.905 1013.45 711.674 1014.53 711.059 1015.98L707.295 1024.84Z" fill="black"/>
<path d="M626.901 963.884H624.44V952.086C624.44 950.462 623.604 949.01 622.214 948.186C620.824 947.362 619.138 947.337 617.724 948.112L612.52 950.979C610.33 952.184 607.734 952.147 605.594 950.868C603.441 949.601 602.161 947.35 602.161 944.852V940.793C602.161 939.255 601.423 937.877 600.144 937.016C598.864 936.155 597.302 936.007 595.887 936.61L589.207 939.402C587.042 940.313 584.582 940.079 582.638 938.775C580.682 937.471 579.513 935.294 579.513 932.956V931.615C579.513 930.078 578.787 928.712 577.508 927.851C576.229 926.99 574.679 926.83 573.264 927.42L566.867 930.041C564.702 930.926 562.253 930.68 560.322 929.376C558.378 928.072 557.222 925.907 557.222 923.57C557.222 922.02 556.484 920.642 555.192 919.793C553.9 918.932 552.338 918.796 550.923 919.399L545.953 921.503C544.034 922.315 541.881 922.229 540.036 921.282C538.191 920.334 536.862 918.637 536.407 916.607L535.767 913.802C535.46 912.473 534.598 911.366 533.393 910.763C532.175 910.148 530.772 910.111 529.53 910.665L520.697 914.54L519.713 912.289L528.546 908.414C530.465 907.577 532.642 907.626 534.512 908.573C536.382 909.521 537.723 911.231 538.191 913.273L538.83 916.078C539.126 917.394 539.987 918.489 541.18 919.104C542.373 919.719 543.776 919.768 545.018 919.252L549.988 917.148C552.153 916.225 554.614 916.459 556.582 917.763C558.538 919.067 559.707 921.245 559.707 923.594C559.707 925.132 560.433 926.498 561.712 927.359C562.992 928.22 564.529 928.368 565.956 927.789L572.353 925.169C574.519 924.283 576.967 924.529 578.898 925.833C580.842 927.137 581.998 929.302 581.998 931.64V932.981C581.998 934.519 582.736 935.896 584.016 936.758C585.295 937.619 586.858 937.766 588.272 937.163L594.952 934.371C597.118 933.473 599.578 933.707 601.522 934.998C603.478 936.302 604.634 938.48 604.634 940.817V944.877C604.634 946.501 605.471 947.952 606.861 948.777C608.251 949.601 609.936 949.625 611.351 948.85L616.555 945.984C618.745 944.779 621.34 944.815 623.481 946.095C625.634 947.362 626.913 949.613 626.913 952.111V963.884H626.901Z" fill="black"/>
<path d="M903.538 586.727C892.171 605.18 861.907 614.849 847.17 595.018C830.795 572.973 842.47 526.09 876.547 524.121C884.322 523.666 892.072 526.213 898.199 531.281C913.748 544.161 916.283 566.035 903.538 586.727Z" fill="black"/>
<path d="M864.676 562.295C860.493 575.224 855.695 589.519 849.68 582.187C845.94 577.623 843.664 566.65 846.333 556.217C848.437 548 854.317 540.114 860.161 535.981C863.187 533.84 866.25 533.348 868.698 534.652C874.948 537.961 869.363 547.791 864.676 562.295Z" fill="#74BAAB"/>
<path d="M628.426 203.185C622.115 209.939 615.017 217.332 612.101 209.631C610.293 204.846 611.142 196.419 615.693 190.649C619.273 186.097 625.695 183.514 631.194 183.428C634.048 183.391 636.521 184.473 638.12 186.479C642.155 191.584 635.5 195.607 628.426 203.185Z" fill="#74BAAB"/>
<path d="M216.097 574.056C216.183 569.639 216.355 564.743 219.739 566.539C221.842 567.659 225.89 576.529 221.252 581.954C220.378 582.975 219.087 583.295 217.918 583.086C214.953 582.569 215.999 579.001 216.097 574.056Z" fill="#74BAAB"/>
<path d="M304.611 688.822C305.14 687.677 304.193 686.558 301.831 685.685C297.119 683.95 287.954 682.707 270.177 683.938C253.791 685.069 245.561 688.526 241.44 691.491C239.238 693.078 239.41 694.271 241.427 695.169C266.204 699.377 291.632 696.08 304.611 688.822Z" fill="black"/>
<path d="M735.258 583.467C733.203 574.302 727.557 546.143 727.495 545.86L729.906 545.38C729.968 545.663 735.602 573.785 737.657 582.926L735.258 583.467Z" fill="black"/>
<path d="M760.194 586.456C757.66 582.778 755.446 577.882 754.117 573.035C753.649 571.337 753.219 569.688 752.813 568.101C750.734 560.142 749.098 553.843 745.124 550.214L746.785 548.394C751.3 552.515 753.022 559.121 755.2 567.474C755.605 569.049 756.036 570.685 756.503 572.37C757.771 576.971 759.85 581.597 762.236 585.054L760.194 586.456Z" fill="black"/>
<path d="M771.868 587.022L769.408 586.948C769.469 585.017 769.285 582.495 769.1 579.825C768.916 577.082 768.694 573.982 768.694 570.98C768.694 565.506 770.048 560.167 772.311 556.673L774.378 558.014C772.36 561.126 771.155 565.961 771.155 570.98C771.155 573.883 771.352 576.824 771.549 579.653C771.745 582.384 771.93 584.968 771.868 587.022Z" fill="black"/>
<path d="M851.574 684.873C848.966 684.873 846.395 683.778 844.587 681.675L824.104 657.735L825.973 656.135L846.456 680.075C848.831 682.856 853.05 683.225 855.867 680.887L916.886 625.319C920.232 622.452 923.996 620.054 928.093 618.184L929.114 620.423C925.227 622.194 921.659 624.47 918.51 627.164L857.479 682.745C855.757 684.172 853.653 684.873 851.574 684.873Z" fill="black"/>
<path d="M855.634 791.888C845.116 791.888 834.032 787.349 824.46 775.219L800.89 749.126L802.71 747.478L826.343 773.632C843.639 795.542 866.091 791.199 880.054 780.853C891.224 772.574 906.774 759.337 926.272 741.499L927.933 743.32C908.373 761.207 892.749 774.506 881.518 782.834C874.407 788.087 865.254 791.888 855.634 791.888Z" fill="black"/>
<path d="M702.46 590.799C701.094 588.4 699.963 586.001 698.794 582.999L701.094 582.113C702.226 585.029 703.272 587.268 704.6 589.581L702.46 590.799Z" fill="black"/>
<path d="M716.953 586.493C714.96 582.765 711.22 575.04 708.562 565.223L710.937 564.583C713.52 574.166 717.174 581.695 719.118 585.324L716.953 586.493Z" fill="black"/>
<path d="M886.757 622.612C866.865 622.612 848.609 611.75 839.111 594.256L841.277 593.075C850.343 609.769 867.775 620.152 886.757 620.152V622.612Z" fill="black"/>
<path d="M553.249 252.393C551.293 252.393 548.894 251.335 546.347 249.293C543.542 247.054 539.2 243.548 535.645 240.694L537.195 238.775C540.75 241.641 545.08 245.135 547.885 247.374C550.505 249.477 553.052 250.412 554.221 249.699C555.279 249.059 555.525 246.882 554.922 243.708C554.196 239.919 554.381 236.88 555.488 234.653L557.69 235.748C557.099 236.942 556.558 239.205 557.333 243.24C558.182 247.669 557.567 250.548 555.488 251.802C554.836 252.196 554.073 252.393 553.249 252.393Z" fill="black"/>
<path d="M643.275 265.827L641.516 264.104L674.461 230.372C686.025 218.525 704.773 217.885 717.124 228.908L715.488 230.741C704.121 220.592 686.873 221.182 676.232 232.082L643.275 265.827Z" fill="black"/>
<path d="M716.679 271.998L683.252 305.586L684.996 307.322L718.423 273.733L716.679 271.998Z" fill="black"/>
<path d="M187.655 591.045L180.151 579.936C177.506 576.442 173.582 574.166 169.165 573.588C164.749 573.022 160.382 574.216 156.876 576.959L155.362 575.028C159.397 571.866 164.404 570.488 169.485 571.152C174.566 571.817 179.056 574.425 182.156 578.509L189.697 589.667L187.655 591.045Z" fill="black"/>
<path d="M228.731 650.577L227.273 679.229L229.731 679.354L231.188 650.702L228.731 650.577Z" fill="black"/>
<path d="M302.775 615.449L300.389 616.051L312.415 663.768L314.801 663.167L302.775 615.449Z" fill="black"/>
</svg>
