<svg width="550" height="809" viewBox="0 0 550 809" fill="none" xmlns="http://www.w3.org/2000/svg">
<g opacity="0.2">
<path fill-rule="evenodd" clip-rule="evenodd" d="M320 523C447.025 523 550 420.025 550 293C550 165.975 447.025 63 320 63C192.975 63 90 165.975 90 293C90 420.025 192.975 523 320 523Z" fill="#FF9B21"/>
<path fill-rule="evenodd" clip-rule="evenodd" d="M460 809C482.644 809 501 790.644 501 768C501 745.356 482.644 727 460 727C437.356 727 419 745.356 419 768C419 790.644 437.356 809 460 809Z" fill="#2B44FF"/>
<path fill-rule="evenodd" clip-rule="evenodd" d="M282 0L331 49L282 98L233 49L282 0Z" fill="#2B44FF"/>
<path fill-rule="evenodd" clip-rule="evenodd" d="M146 690L170 714L146 738L122 714L146 690Z" fill="#FF9B21"/>
<path fill-rule="evenodd" clip-rule="evenodd" d="M493 63L505 75L493 87L481 75L493 63Z" fill="#2026A2"/>
</g>
<g filter="url(#filter0_d)">
<rect x="44" y="136.876" width="251" height="516" rx="36.45" transform="rotate(-5 44 136.876)" fill="#F2F2F2"/>
</g>
<path fill-rule="evenodd" clip-rule="evenodd" d="M80.1243 144.758C66.7548 145.927 56.865 157.714 58.0346 171.083L96.7944 614.109C97.9641 627.479 109.75 637.369 123.12 636.199L302.11 620.539C315.48 619.37 325.369 607.583 324.2 594.214L285.44 151.188C284.27 137.818 272.484 127.928 259.115 129.098L231.211 131.539L231.564 135.575C232.227 143.151 226.622 149.83 219.046 150.493L123.986 158.809C116.41 159.472 109.731 153.868 109.068 146.292L108.715 142.256L80.1243 144.758Z" fill="#1F28CF"/>
<rect x="86.5364" y="209.185" width="51" height="50" rx="8" transform="rotate(-5 86.5364 209.185)" fill="white"/>
<path d="M105.63 241.2L110.652 235.341L116.633 240.228L116.658 240.25L111.596 246.108L105.63 241.2Z" fill="#1FBCFD"/>
<path d="M112.973 214.914L123.992 213.938L107.089 233.672L102.681 238.791L96.7283 233.889L112.973 214.914ZM114.286 231.099C114.412 230.901 114.684 230.97 114.881 230.928L125.388 230.012L116.633 240.228L110.653 235.341L114.286 231.099Z" fill="#44D1FD"/>
<path d="M111.597 246.108L116.659 240.25L127.037 248.793C123.437 249.116 119.838 249.42 116.24 249.743C116.039 249.806 115.896 249.633 115.755 249.531L111.597 246.108V246.108Z" fill="#08589C"/>
<rect x="150.293" y="203.607" width="51" height="50" rx="8" transform="rotate(-5 150.293 203.607)" fill="white"/>
<path d="M169.387 235.623L174.409 229.763L180.389 234.651L180.414 234.672L175.352 240.53L169.387 235.623Z" fill="#1FBCFD"/>
<path d="M176.729 209.336L187.748 208.36L170.845 228.094L166.438 233.213L160.485 228.312L176.729 209.336ZM178.042 225.521C178.169 225.323 178.44 225.392 178.638 225.35L189.145 224.434L180.389 234.651L174.409 229.763L178.042 225.521Z" fill="#44D1FD"/>
<path d="M175.354 240.53L180.416 234.672L190.793 243.215C187.194 243.538 183.594 243.842 179.997 244.165C179.795 244.228 179.652 244.055 179.512 243.953L175.354 240.53V240.53Z" fill="#08589C"/>
<rect x="214.049" y="198.029" width="51" height="50" rx="8" transform="rotate(-5 214.049 198.029)" fill="white"/>
<path d="M233.143 230.044L238.165 224.185L244.146 229.072L244.171 229.094L239.109 234.952L233.143 230.044Z" fill="#1FBCFD"/>
<path d="M240.486 203.758L251.505 202.782L234.602 222.516L230.194 227.635L224.241 222.733L240.486 203.758ZM241.799 219.943C241.925 219.745 242.197 219.814 242.394 219.772L252.901 218.856L244.146 229.072L238.166 224.185L241.799 219.943Z" fill="#44D1FD"/>
<path d="M239.11 234.952L244.172 229.094L254.55 237.637C250.95 237.96 247.351 238.264 243.753 238.587C243.552 238.65 243.409 238.477 243.268 238.375L239.11 234.952V234.952Z" fill="#08589C"/>
<rect x="92.2014" y="273.938" width="51" height="50" rx="8" transform="rotate(-5 92.2014 273.938)" fill="white"/>
<path d="M111.295 305.953L116.317 300.094L122.298 304.981L122.323 305.003L117.261 310.86L111.295 305.953Z" fill="#1FBCFD"/>
<path d="M118.638 279.667L129.657 278.691L112.754 298.425L108.346 303.544L102.393 298.642L118.638 279.667ZM119.951 295.852C120.078 295.654 120.349 295.722 120.546 295.681L131.053 294.764L122.298 304.981L116.318 300.094L119.951 295.852Z" fill="#44D1FD"/>
<path d="M117.262 310.86L122.324 305.003L132.702 313.546C129.102 313.869 125.503 314.173 121.905 314.496C121.704 314.559 121.561 314.386 121.42 314.284L117.262 310.86V310.86Z" fill="#08589C"/>
<rect x="155.958" y="268.36" width="51" height="50" rx="8" transform="rotate(-5 155.958 268.36)" fill="white"/>
<path d="M175.052 300.375L180.074 294.516L186.054 299.403L186.079 299.425L181.017 305.282L175.052 300.375Z" fill="#1FBCFD"/>
<path d="M182.395 274.089L193.413 273.113L176.51 292.847L172.103 297.966L166.15 293.064L182.395 274.089ZM183.707 290.274C183.834 290.076 184.105 290.144 184.303 290.103L194.81 289.186L186.054 299.403L180.074 294.516L183.707 290.274Z" fill="#44D1FD"/>
<path d="M181.019 305.283L186.081 299.425L196.458 307.968C192.859 308.291 189.259 308.595 185.662 308.918C185.46 308.981 185.318 308.808 185.177 308.706L181.019 305.283V305.283Z" fill="#08589C"/>
<rect x="97.8667" y="338.69" width="51" height="50" rx="8" transform="rotate(-5 97.8667 338.69)" fill="white"/>
<path d="M116.96 370.706L121.983 364.847L127.963 369.734L127.988 369.756L122.926 375.613L116.96 370.706Z" fill="#1FBCFD"/>
<path d="M124.303 344.42L135.322 343.444L118.419 363.177L114.012 368.296L108.059 363.395L124.303 344.42ZM125.616 360.604C125.743 360.407 126.014 360.475 126.212 360.434L136.719 359.517L127.963 369.734L121.983 364.846L125.616 360.604Z" fill="#44D1FD"/>
<path d="M122.927 375.613L127.989 369.756L138.367 378.299C134.768 378.621 131.168 378.926 127.57 379.248C127.369 379.311 127.226 379.139 127.085 379.036L122.927 375.613V375.613Z" fill="#08589C"/>
<path fill-rule="evenodd" clip-rule="evenodd" d="M399.396 353.531C391.854 354.069 385.329 352.86 383.017 350.818C377.221 345.698 389.046 320.974 399.112 313.981C409.179 306.988 437.86 316.318 429.482 336.067C426.574 342.922 420.786 347.412 414.225 350.139L404.104 388.203L382.72 377.307L399.396 353.531Z" fill="#B28B67"/>
<path fill-rule="evenodd" clip-rule="evenodd" d="M396.437 295.813C397.673 294.482 399.543 293.756 401.349 294.178C401.788 294.281 402.209 294.447 402.602 294.667C402.742 294.746 402.762 294.808 402.88 294.742C402.968 294.693 403.062 294.511 403.127 294.434C403.329 294.194 403.546 293.966 403.778 293.754C404.569 293.033 405.536 292.53 406.555 292.211C408.463 291.613 410.62 291.63 412.486 292.385C413.507 292.798 414.397 293.451 415.159 294.24C415.554 294.649 415.914 295.09 416.25 295.547C416.352 295.685 416.623 296.244 416.77 296.292C416.933 296.345 417.428 296.125 417.598 296.093C419.707 295.702 421.812 296.199 423.693 297.175C425.816 298.277 427.814 299.429 428.93 301.634C429.166 302.1 429.371 302.584 429.55 303.075C429.645 303.334 429.731 303.596 429.805 303.861C429.849 304.02 429.89 304.181 429.926 304.343C429.986 304.619 429.928 304.669 430.22 304.648C431.341 304.564 432.456 304.826 433.392 305.457C433.947 305.832 434.434 306.304 434.862 306.818C435.008 306.992 435.277 307.53 435.475 307.635C435.67 307.738 436.246 307.66 436.487 307.689C437.791 307.843 439.024 308.345 440.082 309.12C441.173 309.919 442.099 310.989 442.773 312.158C443.097 312.721 443.342 313.286 443.443 313.928C443.486 314.205 443.509 314.487 443.58 314.759C443.621 314.919 443.757 315.13 443.738 315.296C443.749 315.196 445.343 315.362 445.485 315.393C446.244 315.559 446.908 315.942 447.454 316.492C448.48 317.526 449.077 318.976 449.473 320.353C449.676 321.061 449.798 321.79 449.843 322.524C449.865 322.875 449.869 323.228 449.857 323.58C449.852 323.75 449.807 323.944 449.829 324.111C449.857 324.327 449.929 324.368 450.093 324.538C450.922 325.406 451.537 326.473 451.825 327.639C452.117 328.818 452.064 330.06 451.716 331.219C451.695 331.287 451.57 331.55 451.589 331.602C451.616 331.674 451.829 331.757 451.901 331.805C452.151 331.972 452.392 332.153 452.621 332.347C453.043 332.705 453.425 333.111 453.756 333.555C455.045 335.285 455.462 337.512 455.149 339.617C454.82 341.827 453.707 343.984 452.007 345.451C451.732 345.688 451.439 345.904 451.128 346.092C450.937 346.207 450.903 346.191 450.881 346.402C450.857 346.638 450.898 346.9 450.89 347.138C450.864 347.915 450.731 348.686 450.514 349.432C450.159 350.656 449.667 351.882 448.884 352.898C448.521 353.37 448.091 353.794 447.595 354.127C447.342 354.296 447.073 354.442 446.792 354.561C446.646 354.623 446.497 354.677 446.346 354.724C446.26 354.751 446.159 354.762 446.078 354.8C445.88 354.893 445.92 354.754 445.866 355.011C445.792 355.37 445.829 355.781 445.792 356.149C445.754 356.528 445.702 356.906 445.639 357.281C445.512 358.042 445.346 358.799 445.109 359.534C444.655 360.944 443.91 362.315 442.684 363.197C442.159 363.575 441.552 363.831 440.915 363.946C440.604 364.003 440.286 364.026 439.969 364.017C439.806 364.012 439.625 363.954 439.501 364.05C439.367 364.154 439.324 364.473 439.268 364.637C438.782 366.059 438.168 367.5 437.112 368.599C436.139 369.611 434.801 370.26 433.407 370.431C430.702 370.762 428.027 369.303 426.465 367.139C426.058 366.574 425.721 365.96 425.472 365.31C423.497 366.291 421.111 365.012 419.627 363.69C417.779 362.043 416.822 359.687 416.829 357.235C414.644 358.189 412.084 356.214 412.056 353.956C412.05 353.404 412.159 352.854 412.34 352.334C412.435 352.06 412.589 351.813 412.691 351.546C412.822 351.206 412.766 350.782 412.802 350.406C412.87 349.674 413.04 348.969 413.368 348.309C413.54 347.965 413.753 347.653 413.959 347.33C414.144 347.039 414.205 346.71 414.31 346.384C414.812 346.753 415.554 346.945 416.15 347.049C416.735 347.151 417.418 346.982 417.966 346.79C419.238 346.342 420.326 345.46 421.251 344.502C423.28 342.399 424.491 339.252 422.682 336.609C421.84 335.377 418.342 333.598 416.792 333.204C415.162 332.791 411.862 335.171 411.626 335.433C411.48 335.595 411.387 335.84 411.151 335.877C410.632 335.959 410.251 335.164 410.091 334.786C409.816 334.134 409.748 333.418 409.729 332.719C409.689 331.194 409.818 329.648 410.114 328.153C410.343 327 410.69 325.868 410.818 324.697C410.945 323.531 410.806 322.36 410.18 321.344C409.499 320.239 408.528 319.345 407.636 318.414C406.752 317.491 405.929 316.494 405.501 315.274C405.407 315.006 405.324 314.729 405.281 314.448C405.248 314.226 405.291 313.856 405.166 313.663C404.972 313.362 404.357 313.574 404.042 313.604C402.485 313.752 400.972 314.294 399.6 315.029C398.236 315.76 397.035 316.52 395.866 317.517C394.999 318.256 394.144 319.333 393.067 319.753C392.587 319.94 390.209 318.99 389.625 318.315C389.042 317.641 388.613 316.442 388.614 315.829C388.616 315.201 388.834 314.622 389.221 314.131C389.448 313.842 389.731 313.608 389.963 313.329C390.158 313.094 390.34 312.871 390.592 312.694C391.072 312.358 391.658 312.24 392.232 312.359C391.954 311.608 391.814 310.808 391.843 310.008C391.873 309.178 392.025 308.226 392.325 307.45C392.569 306.82 392.979 306.248 393.57 305.9C394.188 305.536 394.977 305.494 395.676 305.426C395.192 304.385 394.893 303.268 394.759 302.131C394.497 299.92 394.875 297.494 396.437 295.813Z" fill="#191847"/>
<path fill-rule="evenodd" clip-rule="evenodd" d="M385 462L335.918 586.227L302.999 691.251H290L340.326 462L385 462Z" fill="#997659"/>
<path fill-rule="evenodd" clip-rule="evenodd" d="M394.883 462C395.406 505.655 403.028 564.428 404.246 567.149C405.464 569.87 488.324 636.358 488.324 636.358L479.371 645.939C479.371 645.939 381.603 588.934 377.079 581.331C372.555 573.728 357.826 503.764 346 462H394.883Z" fill="#B28B67"/>
<path fill-rule="evenodd" clip-rule="evenodd" d="M486.884 634.564C487.212 633.44 488.396 632.772 489.496 633.173C491.502 633.906 494.436 635.093 495.736 636.183C497.808 637.922 501.204 641.948 501.204 641.948C499.187 644.352 464.95 685.155 464.95 685.155C464.95 685.155 457.969 682.167 460.569 678.166C463.17 674.165 464.826 671.464 464.826 671.464L472.724 643.87C472.879 643.329 473.451 643.022 473.988 643.192L478.202 644.529C478.202 644.529 482.588 642.485 484.351 640.385C485.423 639.106 486.335 636.448 486.884 634.564Z" fill="#E4E4E4"/>
<path fill-rule="evenodd" clip-rule="evenodd" d="M305.55 685.285C306.622 684.813 307.896 685.29 308.295 686.391C309.023 688.399 310 691.409 310 693.106C310 695.811 309.099 701 309.099 701C305.961 701 252.697 701 252.697 701C252.697 701 250.498 693.732 255.235 693.153C259.972 692.573 263.105 692.106 263.105 692.106L289.32 680.419C289.835 680.19 290.437 680.431 290.652 680.952L292.337 685.039C292.337 685.039 296.722 687.085 299.463 687.085C301.132 687.085 303.754 686.075 305.55 685.285Z" fill="#E4E4E4"/>
<path fill-rule="evenodd" clip-rule="evenodd" d="M352 680.433L290.196 673.726L336 462H391.356L352 680.433Z" fill="#69A1AC"/>
<path fill-rule="evenodd" clip-rule="evenodd" d="M475.54 620.901L435 668.886C435 668.886 370.95 598.932 360.317 577.596C349.685 556.26 341.201 462 341.201 462H403.522C403.522 462 408.156 544.926 409.769 548.785C411.383 552.644 475.54 620.901 475.54 620.901Z" fill="#89C5CC"/>
<path fill-rule="evenodd" clip-rule="evenodd" d="M283.325 398.141L314.633 422.347L299.821 433.93L278.523 407.177C265.974 401.482 260.392 397.886 261.777 396.388C262.945 395.126 264.461 395.416 265.857 395.684C266.945 395.892 267.96 396.086 268.682 395.522C270.33 394.233 268.48 388.521 266.492 383.175C264.504 377.83 267.393 378.725 268.972 379.699C273.912 384.321 278.696 390.468 283.325 398.141ZM434.847 461.027L455.713 462.04C460.337 500.943 463.52 522.424 465.263 526.482C466.541 529.458 476.665 538.826 483.747 544.247C486.589 546.423 485.234 548.945 484.084 549.574C476.833 553.539 471.827 550.267 466.378 546.706C464.8 545.675 463.185 544.62 461.468 543.709C457.023 541.351 454.974 543.428 453.037 545.391C451.323 547.128 449.696 548.777 446.574 547.179C446.887 546.566 447.254 545.883 447.65 545.146C450.21 540.384 453.985 533.36 452.244 528.299C451.351 525.701 445.552 503.277 434.847 461.027Z" fill="#B28B67"/>
<path fill-rule="evenodd" clip-rule="evenodd" d="M400.337 369.218L392.306 365.687C369.611 378.858 351.535 419.588 337.95 422.189C325.107 424.648 310.07 415.42 292.404 403.619L283.152 415.413C296.026 438.88 329.565 464.357 347.081 458.954C375.087 450.316 393.802 399.188 400.337 369.218Z" fill="#DB2721"/>
<path fill-rule="evenodd" clip-rule="evenodd" d="M410.624 483.777C410.624 483.777 360.161 471.195 336.385 465.267C332.992 464.421 334.853 459.682 335.96 457.333C348.732 430.217 378.492 404.974 388.616 364.367L410.868 366.348C421.477 399.25 418.858 435.85 410.624 483.777Z" fill="#DDE3E9"/>
<path fill-rule="evenodd" clip-rule="evenodd" d="M412.005 366.631L412.249 366.692C452.901 408.266 470.488 461.385 465.013 526.049L448.692 525.217C441.378 510.638 433.557 487.813 425.229 456.74C425.772 474.343 424.957 492.054 422.038 508.266L355.212 491.604C350.426 455.685 403.77 364.578 403.77 364.578L408.384 365.729L412.005 366.631Z" fill="#FF4133"/>
<defs>
<filter id="filter0_d" x="0" y="103" width="363.017" height="603.913" filterUnits="userSpaceOnUse" color-interpolation-filters="sRGB">
<feFlood flood-opacity="0" result="BackgroundImageFix"/>
<feColorMatrix in="SourceAlpha" type="matrix" values="0 0 0 0 0 0 0 0 0 0 0 0 0 0 0 0 0 0 127 0" result="hardAlpha"/>
<feOffset dx="-10" dy="22"/>
<feGaussianBlur stdDeviation="17"/>
<feColorMatrix type="matrix" values="0 0 0 0 0 0 0 0 0 0 0 0 0 0 0 0 0 0 0.1 0"/>
<feBlend mode="normal" in2="BackgroundImageFix" result="effect1_dropShadow"/>
<feBlend mode="normal" in="SourceGraphic" in2="effect1_dropShadow" result="shape"/>
</filter>
</defs>
</svg>
