<svg width="270" height="250" viewBox="0 0 270 250" fill="none" xmlns="http://www.w3.org/2000/svg">
<path fill-rule="evenodd" clip-rule="evenodd" d="M133.516 247.036C188.684 247.036 233.407 202.353 233.407 147.233C233.407 92.1139 188.684 47.4308 133.516 47.4308C78.3487 47.4308 33.6263 92.1139 33.6263 147.233C33.6263 202.353 78.3487 247.036 133.516 247.036Z" fill="#AADDC7"/>
<mask id="mask0" mask-type="alpha" maskUnits="userSpaceOnUse" x="0" y="0" width="270" height="250">
<path fill-rule="evenodd" clip-rule="evenodd" d="M133.517 247.036C179.295 247.036 217.881 216.268 229.689 174.301C232.111 165.693 269.67 137.312 269.67 127.931C269.67 72.8119 188.684 0.0334473 133.517 0.0334473C78.3487 0.0334473 -36.5934 223.325 12.0129 247.036C41.0441 261.197 60.0885 215.11 63.9604 218.864C81.9455 236.301 106.476 247.036 133.517 247.036Z" fill="white"/>
</mask>
<g mask="url(#mask0)">
<path fill-rule="evenodd" clip-rule="evenodd" d="M138.398 58.5418C144.802 62.3986 151.095 64.2621 154.049 63.5014C161.456 61.5938 162.137 34.5208 156.406 23.8477C150.674 13.1747 121.212 8.52265 119.727 29.6694C119.211 37.0087 122.296 43.5586 126.853 48.9032L118.681 86.9565H142.418L138.398 58.5418Z" fill="#784931"/>
<path fill-rule="evenodd" clip-rule="evenodd" d="M155.688 17.8367C156.115 16.6058 159.029 12.7922 153.84 9.15902C152.907 8.50612 151.366 9.15688 150.031 8.74479C149.027 8.43473 148.688 7.03469 147.537 6.79044C146.342 6.53706 145.041 7.68547 143.691 7.58455C142.864 7.52271 141.588 6.23476 140.727 6.16538C139.189 6.04154 137.793 7.49131 136.291 7.58455C135.421 7.63861 134.411 6.2394 133.547 6.16538C131.445 5.98523 129.53 6.96452 127.677 7.2615C125.97 7.53522 125.176 11.0314 123.918 11.8577C119.971 14.4506 116.879 15.1756 113.676 17.8367C109.868 21.0003 109.14 23.3539 107.562 25.4619C105.985 27.57 105.011 34.9973 105.931 39.7573C106.473 42.5651 107.887 50.2333 111.046 53.2021C115.369 57.2657 124.165 58.4697 124.946 57.9276C128.562 55.4166 136.668 41.5285 142.418 36.6201C146.645 33.0108 153.039 25.4619 155.688 17.8367Z" fill="#FF9B21"/>
<mask id="mask1" mask-type="alpha" maskUnits="userSpaceOnUse" x="105" y="6" width="52" height="53">
<path fill-rule="evenodd" clip-rule="evenodd" d="M155.688 17.8367C156.115 16.6058 159.029 12.7922 153.84 9.15902C152.907 8.50612 151.366 9.15688 150.031 8.74479C149.027 8.43473 148.688 7.03469 147.537 6.79044C146.342 6.53706 145.041 7.68547 143.691 7.58455C142.864 7.52271 141.588 6.23476 140.727 6.16538C139.189 6.04154 137.793 7.49131 136.291 7.58455C135.421 7.63861 134.411 6.2394 133.547 6.16538C131.445 5.98523 129.53 6.96452 127.677 7.2615C125.97 7.53522 125.176 11.0314 123.918 11.8577C119.971 14.4506 116.879 15.1756 113.676 17.8367C109.868 21.0003 109.14 23.3539 107.562 25.4619C105.985 27.57 105.011 34.9973 105.931 39.7573C106.473 42.5651 107.887 50.2333 111.046 53.2021C115.369 57.2657 124.165 58.4697 124.946 57.9276C128.562 55.4166 136.668 41.5285 142.418 36.6201C146.645 33.0108 153.039 25.4619 155.688 17.8367Z" fill="white"/>
</mask>
<g mask="url(#mask1)">
<path fill-rule="evenodd" clip-rule="evenodd" d="M131.078 33.2475C133.742 25.0794 138.58 4.68475 138.58 4.68475L135.657 4.99173C135.657 4.99173 133.343 18.0045 130.963 26.4344C128.787 34.1413 126.286 41.6976 124.319 47.6387C121.601 55.8469 119.905 60.9718 121.499 59.1505C121.689 58.9325 121.88 58.6787 122.072 58.3891C122.09 58.4278 122.117 58.4503 122.155 58.4561C122.042 58.6788 122.198 58.5784 122.667 58.1449L122.671 58.1411C125.395 55.6173 133.189 46.725 141.352 31.9869C145.109 25.2046 151.998 8.02163 151.998 8.02163L149.262 6.85235C149.262 6.85235 144.712 20.4283 141.352 27.0112C135.445 38.5862 129.904 47.1938 126.301 52.4706C127.794 49.4935 129.551 45.5036 131.744 40.5269C132.709 38.3354 133.759 35.9525 134.908 33.3804C138.411 25.5353 145.357 5.75764 145.357 5.75764H142.418C142.418 5.75764 138.754 18.4574 135.506 26.5926C132.536 34.03 129.257 41.2837 126.68 46.9868L126.68 46.9868L126.68 46.9869C126.636 47.0833 126.593 47.1793 126.55 47.2748C127.199 45.3033 127.903 43.1065 128.679 40.6852C129.41 38.4049 130.205 35.9254 131.078 33.2475Z" fill="black" fill-opacity="0.2"/>
</g>
<path fill-rule="evenodd" clip-rule="evenodd" d="M99.5381 168.972C101.321 193.29 216.204 264.885 216.875 266.894C217.322 268.233 181.116 351.559 181.116 351.559L191.158 355.458C191.158 355.458 246.692 267.21 243.839 257.806C239.756 244.344 154.703 169.231 154.703 169.231L99.5381 168.972Z" fill="#B28B67"/>
<path fill-rule="evenodd" clip-rule="evenodd" d="M183.759 339.014L200.155 344.977C234.728 306.002 248.28 273.844 245.809 257.46C243.338 241.075 156.98 169.032 156.98 169.032L98.3623 169.032C100.362 225.348 206.845 267.108 208.269 269.508C209.693 271.908 195.677 295.412 183.759 339.014Z" fill="#2F3676"/>
<path fill-rule="evenodd" clip-rule="evenodd" d="M112.747 168.972L61.57 291.726L11.2706 395.504H23.1379L152.974 168.972H112.747Z" fill="#997659"/>
<path fill-rule="evenodd" clip-rule="evenodd" d="M15.8129 373.946L42.182 378.886C62.5706 348.938 147.897 226.138 157.253 168.972H98.5491C67.307 210.297 35.2474 343.501 15.8129 373.946Z" fill="#5C63AB"/>
<path fill-rule="evenodd" clip-rule="evenodd" d="M237.595 126.19L201.758 141.914L213.201 156.561L240.04 136.001C253.446 133.541 259.663 131.427 258.692 129.66C257.873 128.171 256.349 128.087 254.945 128.009C253.851 127.949 252.831 127.893 252.273 127.179C251 125.549 254.142 120.515 257.329 115.865C260.516 111.215 257.529 111.383 255.781 111.939C249.934 115.189 243.872 119.94 237.595 126.19ZM77.1429 150.263L56.8763 146.245C43.1317 182.44 34.9374 202.275 32.2935 205.749C30.3548 208.297 18.3982 214.859 10.3053 218.363C7.05696 219.77 7.75441 222.513 8.70715 223.39C14.7167 228.925 20.3036 226.985 26.3852 224.873C28.1458 224.262 29.9479 223.636 31.8137 223.173C36.643 221.975 38.1126 224.456 39.5015 226.801C40.7312 228.877 41.8975 230.846 45.2763 230.06C45.1226 229.398 44.9338 228.656 44.73 227.855C43.4129 222.676 41.4704 215.04 44.3523 210.603C45.8312 208.326 56.7614 188.212 77.1429 150.263Z" fill="#B28B67"/>
<path fill-rule="evenodd" clip-rule="evenodd" d="M132.226 70.4861L140.778 69.0205C159.405 87.074 167.007 130.447 179.42 136.188C191.157 141.616 207.795 136.364 227.571 129.271L233.628 142.791C215.659 162.214 177.378 178.623 161.862 169.255C137.054 154.278 131.327 100.784 132.226 70.4861Z" fill="#1F28CF"/>
<path fill-rule="evenodd" clip-rule="evenodd" d="M94.9451 177.866C94.9451 177.866 146.381 177.866 170.616 177.866C174.074 177.866 173.422 172.877 172.922 170.36C167.153 141.308 144.634 109.992 144.634 68.637L122.807 65.2173C104.754 94.2276 98.5103 129.945 94.9451 177.866Z" fill="#DDE3E9"/>
<path fill-rule="evenodd" clip-rule="evenodd" d="M121.648 65.2173H121.399C72.4417 95.36 42.8545 142.086 32.6374 205.394L48.4986 208.498C59.0054 196.268 71.9717 176.253 87.3977 148.452C82.6649 165.199 79.2096 182.375 78.1319 198.617H146.247C159.434 165.322 130.042 65.2173 130.042 65.2173H125.339H121.648Z" fill="#2B44FF"/>
</g>
</svg>
