<svg width="240" height="279" viewBox="0 0 240 279" fill="none" xmlns="http://www.w3.org/2000/svg">
<path fill-rule="evenodd" clip-rule="evenodd" d="M60.0043 24.5941C76.9318 -13.6628 184.556 -6.66088 217.671 43.0026C250.786 92.666 212.94 203 179.015 203C145.09 203 145.09 128.506 131.102 106.629C117.114 84.7517 43.0768 62.851 60.0043 24.5941Z" fill="#91FFBD" fill-opacity="0.7"/>
<path fill-rule="evenodd" clip-rule="evenodd" d="M24.8068 133.074C34.4011 151.046 51.2116 137.501 72.8245 118.701C94.4374 99.8997 121.84 81.3381 112.245 63.3658C102.651 45.3936 68.1811 47.6895 46.5682 66.4904C24.9553 85.2912 15.2124 115.102 24.8068 133.074Z" fill="#2B44FF" fill-opacity="0.6"/>
<path fill-rule="evenodd" clip-rule="evenodd" d="M211.242 188.217C224.915 188.217 240 175.124 240 158.441C240 141.758 224.915 128.665 211.242 128.665C197.568 128.665 192.483 147.758 192.483 161.441C192.483 175.124 197.568 188.217 211.242 188.217Z" fill="#FF73C6" fill-opacity="0.7"/>
<path fill-rule="evenodd" clip-rule="evenodd" d="M107.166 90.2866C110.619 92.3764 114.013 93.3861 115.605 92.9739C119.6 91.9403 119.967 77.2712 116.876 71.4881C113.786 65.7051 97.8978 63.1845 97.0969 74.6425C96.819 78.6192 98.4823 82.1682 100.94 85.0641L96.5333 105.683H109.333L107.166 90.2866Z" fill="#B28B67"/>
<path fill-rule="evenodd" clip-rule="evenodd" d="M99.9563 87.6434C98.3498 80.4683 93.7731 75.5773 94.4721 72.3704C95.171 69.1634 98.198 68.3818 98.198 68.3818C98.198 68.3818 99.7635 62.0238 108.296 62.9732C116.829 63.9226 122.037 67.48 119.788 75.3077C117.721 75.3077 115.225 74.5571 111.774 75.8431C110.131 76.4552 109.424 79.6393 109.424 79.6393H107.864C107.864 79.6393 105.594 75.8607 103.387 76.8622C101.18 77.8637 102.384 81.7277 102.384 81.7277L101.616 87.6434H99.9563Z" fill="#191847"/>
<path fill-rule="evenodd" clip-rule="evenodd" d="M73.3988 172.609H114.601L120 239H58.6667L73.3988 172.609Z" fill="#C5CFD6"/>
<path fill-rule="evenodd" clip-rule="evenodd" d="M73.3988 172.609H86.0708L93.6554 239H58.6667L73.3988 172.609Z" fill="black" fill-opacity="0.1"/>
<path fill-rule="evenodd" clip-rule="evenodd" d="M137.239 185.762C132.609 195.62 125.374 219.55 125.374 219.55L131.516 222.367C131.516 222.367 147.101 197.212 156.625 180.017C156.181 183.888 155.73 188.246 155.311 192.828C154.318 203.681 155.31 227.128 155.844 233.901C156.18 238.158 161.941 237.266 162.479 233.89C162.57 233.319 162.941 231.311 163.495 228.316C166.212 213.628 173.321 175.189 173.333 165.776C173.338 161.989 165.968 158.587 161.575 161.235C158.558 158.003 152.847 156.14 149.566 161.479C147.48 164.873 142.524 174.51 137.239 185.762Z" fill="#B28B67"/>
<path fill-rule="evenodd" clip-rule="evenodd" d="M125.813 210.69L146.895 160.556C151.945 152.4 166.105 162.215 164.382 166.945C160.472 177.684 140.587 212.451 139.422 215.651L125.813 210.69Z" fill="#1F28CF"/>
<path fill-rule="evenodd" clip-rule="evenodd" d="M126.841 217.42C126.102 216.508 124.762 216.272 123.893 217.057C123.169 217.712 122.41 218.472 122.08 219.047C121.358 220.302 120.391 222.949 120.391 222.949C121.84 223.789 146.442 238.048 146.442 238.048C146.442 238.048 149.395 235.266 147.362 233.73C145.329 232.193 144.006 231.138 144.006 231.138L135.297 219.091C134.966 218.633 134.324 218.54 133.878 218.884L132.389 220.035C132.389 220.035 129.818 219.81 128.552 219.076C128.009 218.761 127.381 218.087 126.841 217.42Z" fill="#E4E4E4"/>
<path fill-rule="evenodd" clip-rule="evenodd" d="M156.917 230.976C155.822 230.556 154.54 231.025 154.179 232.141C153.878 233.071 153.6 234.11 153.6 234.773C153.6 236.222 154.081 239 154.081 239C155.754 239 184.162 239 184.162 239C184.162 239 185.334 235.109 182.808 234.798C180.282 234.488 178.611 234.238 178.611 234.238L165.07 228.178C164.555 227.947 163.951 228.189 163.736 228.711L163.02 230.454C163.02 230.454 160.682 231.55 159.22 231.55C158.593 231.55 157.716 231.282 156.917 230.976Z" fill="#E4E4E4"/>
<path fill-rule="evenodd" clip-rule="evenodd" d="M174.811 169.628C174.811 183.853 168.082 217.032 168.078 220.164L153.6 220.175C153.6 220.175 156.779 175.767 155.854 175.288C154.93 174.81 117.96 178.994 106.873 178.994C90.8842 178.994 84.27 168.872 83.7333 150.122H115.406C121.855 150.815 155.493 157.626 167.985 159.967C173.333 160.97 174.811 165.71 174.811 169.628Z" fill="#2B44FF"/>
<path fill-rule="evenodd" clip-rule="evenodd" d="M158.059 89.0648L137.843 95.157L143.005 103.789L158.722 94.5025C166.06 94.0639 169.526 93.3374 169.123 92.3231C168.782 91.4679 167.972 91.3222 167.226 91.188C166.644 91.0834 166.102 90.9859 165.85 90.5653C165.276 89.6048 167.289 87.1046 169.3 84.814C171.312 82.5234 169.702 82.4167 168.73 82.6004C165.387 83.9629 161.83 86.1177 158.059 89.0648ZM153.069 143.478L136.057 130.937L132.296 140.27L149.143 147.283C153.908 152.901 156.572 155.244 157.136 154.31C157.611 153.522 157.24 152.785 156.897 152.106C156.63 151.577 156.382 151.083 156.565 150.628C156.983 149.59 160.184 149.699 163.217 149.933C166.249 150.167 165.365 148.812 164.634 148.144C161.538 146.283 157.684 144.728 153.069 143.478Z" fill="#B28B67"/>
<path fill-rule="evenodd" clip-rule="evenodd" d="M109.632 97.1626C118.897 114.504 132.293 127.798 151.715 141.617L144.361 149.941C122.676 141.851 111.231 136.97 105.611 120.586C104.201 116.474 103.215 103.365 102.369 96.4677L109.632 97.1626Z" fill="#2026A2"/>
<path fill-rule="evenodd" clip-rule="evenodd" d="M83.7333 154.941H124.8C124.8 154.941 110.847 112.219 110.544 96.2978C110.534 95.7567 109.538 94.8032 109.098 94.928C104.267 96.2978 98.7583 93.9037 98.7583 93.9037C89.0227 109.622 85.6559 128.976 83.7333 154.941Z" fill="#F2F2F2"/>
<path fill-rule="evenodd" clip-rule="evenodd" d="M109.059 117.885C115.473 145.505 115.178 168.115 101.017 168.115H79.1206C75.6429 144.652 84.783 112.12 93.2565 95.7115C93.5801 95.0849 94.269 93.9037 95.8917 93.9037H102.254C102.257 93.9121 102.26 93.9206 102.263 93.929C104.177 93.9448 106.286 94.015 108.569 94.0911C120.324 94.4829 136.715 95.0292 155.159 89.085L157.333 99.9931C140.686 110.741 123.83 119.067 109.059 117.885Z" fill="#1F28CF"/>
</svg>
